<svg width="16" height="15" viewBox="0 0 16 15" fill="none" xmlns="http://www.w3.org/2000/svg">
<g id="Account">
<path id="Vector" d="M8 13.75C4.54813 13.75 1.75 10.9519 1.75 7.5C1.75 4.04813 4.54813 1.25 8 1.25C11.4519 1.25 14.25 4.04813 14.25 7.5C14.25 10.9519 11.4519 13.75 8 13.75ZM4.88313 11.41C5.76784 12.1173 6.8673 12.5018 8 12.5C9.23125 12.5 10.3581 12.055 11.2294 11.3175C10.8223 10.8998 10.3357 10.5681 9.79815 10.3418C9.26064 10.1155 8.6832 9.99925 8.1 10C7.49537 9.9993 6.89719 10.1243 6.34342 10.367C5.78964 10.6097 5.29236 10.9649 4.88313 11.41ZM4.01 10.5125C4.53528 9.95504 5.16917 9.51107 5.87259 9.20795C6.576 8.90483 7.33405 8.74897 8.1 8.75C8.83853 8.74904 9.56998 8.89398 10.2523 9.17649C10.9347 9.459 11.5545 9.87352 12.0763 10.3963C12.6113 9.6432 12.9273 8.75665 12.9891 7.83495C13.0509 6.91324 12.8562 5.99243 12.4266 5.17466C11.9969 4.35689 11.3491 3.67414 10.555 3.20215C9.76088 2.73017 8.85155 2.4874 7.92788 2.50078C7.0042 2.51417 6.10229 2.78318 5.3222 3.27797C4.54211 3.77277 3.91435 4.474 3.50856 5.30388C3.10277 6.13375 2.93481 7.05982 3.02332 7.97934C3.11184 8.89887 3.45336 9.77589 4.01 10.5131V10.5125ZM8 8.125C7.33696 8.125 6.70107 7.86161 6.23223 7.39277C5.76339 6.92393 5.5 6.28804 5.5 5.625C5.5 4.96196 5.76339 4.32607 6.23223 3.85723C6.70107 3.38839 7.33696 3.125 8 3.125C8.66304 3.125 9.29893 3.38839 9.76777 3.85723C10.2366 4.32607 10.5 4.96196 10.5 5.625C10.5 6.28804 10.2366 6.92393 9.76777 7.39277C9.29893 7.86161 8.66304 8.125 8 8.125ZM8 6.875C8.33152 6.875 8.64946 6.7433 8.88388 6.50888C9.1183 6.27446 9.25 5.95652 9.25 5.625C9.25 5.29348 9.1183 4.97554 8.88388 4.74112C8.64946 4.5067 8.33152 4.375 8 4.375C7.66848 4.375 7.35054 4.5067 7.11612 4.74112C6.8817 4.97554 6.75 5.29348 6.75 5.625C6.75 5.95652 6.8817 6.27446 7.11612 6.50888C7.35054 6.7433 7.66848 6.875 8 6.875Z" fill="white"/>
</g>
</svg>
