<svg width="28" height="19" viewBox="0 0 28 19" fill="none" xmlns="http://www.w3.org/2000/svg">
<path fill-rule="evenodd" clip-rule="evenodd" d="M21.3472 5.51293L22.7612 6.92693L13.4472 16.2409H12.0332V14.8269L21.3472 5.51293ZM10.0332 16.2409V13.9979L23.4682 0.562929C23.6557 0.375458 23.91 0.270142 24.1752 0.270142C24.4404 0.270142 24.6947 0.375458 24.8822 0.562929L27.7112 3.39193C27.8987 3.57946 28.004 3.83376 28.004 4.09893C28.004 4.36409 27.8987 4.6184 27.7112 4.80593L14.2762 18.2409H14.2752H10.0332L0.0332031 18.2409V16.2409H10.0332ZM24.1752 2.68493L25.5892 4.09893L24.1752 5.51293L22.7612 4.09893L24.1752 2.68493Z" fill="#7CF335"/>
</svg>
