<svg width="16" height="15" viewBox="0 0 16 15" fill="none" xmlns="http://www.w3.org/2000/svg">
<g id="fi-rs-gift" clip-path="url(#clip0_213_2606)">
<path id="Vector" d="M13.625 4.375H11.6662C12.0994 3.98005 12.4427 3.49663 12.6728 2.95748C12.9029 2.41833 13.0145 1.83603 13 1.25H11.75C11.75 3.05063 10.5181 3.94188 9.155 4.25C9.5643 3.51987 9.80997 2.70949 9.875 1.875C9.875 1.37772 9.67746 0.900805 9.32583 0.549175C8.97419 0.197544 8.49728 0 8 0C7.50272 0 7.02581 0.197544 6.67417 0.549175C6.32254 0.900805 6.125 1.37772 6.125 1.875C6.19003 2.70949 6.4357 3.51987 6.845 4.25C5.48188 3.94188 4.25 3.05063 4.25 1.25H3C2.9855 1.83603 3.09708 2.41833 3.32719 2.95748C3.5573 3.49663 3.90056 3.98005 4.33375 4.375H2.375C1.87772 4.375 1.40081 4.57254 1.04917 4.92417C0.697544 5.27581 0.5 5.75272 0.5 6.25L0.5 8.75H1.75V15H14.25V8.75H15.5V6.25C15.5 5.75272 15.3025 5.27581 14.9508 4.92417C14.5992 4.57254 14.1223 4.375 13.625 4.375ZM8 1.25C8.16576 1.25 8.32473 1.31585 8.44194 1.43306C8.55915 1.55027 8.625 1.70924 8.625 1.875C8.54955 2.53927 8.33671 3.18057 8 3.75813C7.66329 3.18057 7.45045 2.53927 7.375 1.875C7.375 1.70924 7.44085 1.55027 7.55806 1.43306C7.67527 1.31585 7.83424 1.25 8 1.25ZM1.75 6.25C1.75 6.08424 1.81585 5.92527 1.93306 5.80806C2.05027 5.69085 2.20924 5.625 2.375 5.625H7.375V7.5H1.75V6.25ZM3 8.75H7.375V13.75H3V8.75ZM13 13.75H8.625V8.75H13V13.75ZM14.25 7.5H8.625V5.625H13.625C13.7908 5.625 13.9497 5.69085 14.0669 5.80806C14.1842 5.92527 14.25 6.08424 14.25 6.25V7.5Z" fill="white"/>
</g>
<defs>
<clipPath id="clip0_213_2606">
<rect width="15" height="15" fill="white" transform="translate(0.5)"/>
</clipPath>
</defs>
</svg>
