<svg width="21" height="20" viewBox="0 0 21 20" fill="none" xmlns="http://www.w3.org/2000/svg">
<g clip-path="url(#clip0_1092_4381)">
<path d="M20.6228 20H10.6378C8.68698 19.9991 6.77901 19.4275 5.14892 18.3558C3.51883 17.2841 2.23782 15.759 1.46366 13.9683C0.689509 12.1776 0.456027 10.1996 0.791974 8.27794C1.12792 6.35624 2.01863 4.57477 3.35438 3.15295C4.69013 1.73114 6.41259 0.731076 8.3096 0.275949C10.2066 -0.179179 12.1953 -0.0694963 14.0308 0.591488C15.8662 1.25247 17.4683 2.43589 18.6396 3.99597C19.8109 5.55606 20.5002 7.42468 20.6228 9.37167V9.42417V20ZM10.6378 1.66667C8.42769 1.66667 6.30807 2.54464 4.74527 4.10744C3.18246 5.67025 2.30449 7.78986 2.30449 10C2.30449 12.2101 3.18246 14.3298 4.74527 15.8926C6.30807 17.4554 8.42769 18.3333 10.6378 18.3333H18.9562V9.45083C18.8133 7.3411 17.8751 5.36419 16.3311 3.91936C14.7871 2.47453 12.7524 1.66943 10.6378 1.66667Z" fill="white"/>
<path d="M11.457 5.83301H6.45703V7.49967H11.457V5.83301Z" fill="white"/>
<path d="M14.7904 9.16699H6.45703V10.8337H14.7904V9.16699Z" fill="white"/>
<path d="M14.7904 12.5H6.45703V14.1667H14.7904V12.5Z" fill="white"/>
</g>
<defs>
<clipPath id="clip0_1092_4381">
<rect width="20" height="20" fill="white" transform="translate(0.623047)"/>
</clipPath>
</defs>
</svg>
