<svg width="22" height="20" viewBox="0 0 22 20" fill="none" xmlns="http://www.w3.org/2000/svg">
<mask id="path-1-inside-1_855_5110" fill="#7CF335">
<path fill-rule="evenodd" clip-rule="evenodd" d="M15.8023 8.21622C15.8023 12.7539 12.2882 16.4324 7.9534 16.4324C7.82402 16.4324 7.69537 16.4292 7.56753 16.4227C6.70332 15.1026 6.19772 13.505 6.19772 11.7838C6.19772 10.3089 6.56896 8.92478 7.21896 7.72824L10.0523 8.18151L10.4835 11.1352L10.9147 8.1815L13.8399 7.71354L10.9421 7.24995L10.5312 4.43574C11.5888 3.88025 12.7828 3.56757 14.0466 3.56757C14.176 3.56757 14.3047 3.57084 14.4325 3.57732C15.2967 4.89743 15.8023 6.49502 15.8023 8.21622ZM10.4275 4.49125C9.09351 5.21816 7.98406 6.33437 7.23657 7.696L10.0247 7.24996L10.4275 4.49125ZM14.4325 3.57732C13.0184 1.41717 10.644 0 7.9534 0C3.61857 0 0.104492 3.67853 0.104492 8.21622C0.104492 12.6185 3.41193 16.2121 7.56753 16.4227C8.98167 18.5828 11.3561 20 14.0466 20C18.3815 20 21.8955 16.3215 21.8955 11.7838C21.8955 7.38153 18.5881 3.78791 14.4325 3.57732Z"/>
</mask>
<path d="M7.21896 7.72824L7.37694 6.7408L6.67808 6.629L6.34025 7.2509L7.21896 7.72824ZM10.0523 8.18151L11.0418 8.03705L10.9356 7.31012L10.2102 7.19407L10.0523 8.18151ZM10.4835 11.1352L9.49398 11.2797H11.473L10.4835 11.1352ZM10.9147 8.1815L10.7567 7.19406L10.0313 7.31011L9.9252 8.03704L10.9147 8.1815ZM13.8399 7.71354L13.9978 8.70098V6.72609L13.8399 7.71354ZM10.9421 7.24995L9.95256 7.39441L10.0587 8.12134L10.7841 8.23739L10.9421 7.24995ZM10.5312 4.43574L10.0662 3.55044L9.43942 3.87966L9.5417 4.5802L10.5312 4.43574ZM10.4275 4.49125L11.417 4.63572L11.706 2.65567L9.94896 3.61316L10.4275 4.49125ZM7.23657 7.696L6.35998 7.21478L5.37649 9.00629L7.39454 8.68344L7.23657 7.696ZM10.0247 7.24996L10.1827 8.2374L10.9081 8.12135L11.0142 7.39442L10.0247 7.24996ZM7.9534 17.4324C12.8831 17.4324 16.8023 13.2626 16.8023 8.21622H14.8023C14.8023 12.2452 11.6933 15.4324 7.9534 15.4324V17.4324ZM7.51693 17.4214C7.66161 17.4287 7.80713 17.4324 7.9534 17.4324V15.4324C7.84091 15.4324 7.72913 15.4296 7.61813 15.424L7.51693 17.4214ZM5.19772 11.7838C5.19772 13.7027 5.76184 15.4902 6.73086 16.9704L8.40419 15.875C7.6448 14.715 7.19772 13.3072 7.19772 11.7838H5.19772ZM6.34025 7.2509C5.61184 8.59178 5.19772 10.1397 5.19772 11.7838H7.19772C7.19772 10.4781 7.52609 9.25779 8.09768 8.20559L6.34025 7.2509ZM10.2102 7.19407L7.37694 6.7408L7.06099 8.71569L9.89429 9.16896L10.2102 7.19407ZM11.473 10.9907L11.0418 8.03705L9.06275 8.32598L9.49398 11.2797L11.473 10.9907ZM9.9252 8.03704L9.49398 10.9907L11.473 11.2797L11.9042 8.32597L9.9252 8.03704ZM13.6819 6.72609L10.7567 7.19406L11.0727 9.16895L13.9978 8.70098L13.6819 6.72609ZM10.7841 8.23739L13.6819 8.70098L13.9978 6.72609L11.1 6.2625L10.7841 8.23739ZM9.5417 4.5802L9.95256 7.39441L11.9316 7.10548L11.5207 4.29127L9.5417 4.5802ZM14.0466 2.56757C12.6156 2.56757 11.2624 2.92209 10.0662 3.55044L10.9962 5.32104C11.9151 4.83841 12.9501 4.56757 14.0466 4.56757V2.56757ZM14.4831 2.5786C14.3384 2.57127 14.1929 2.56757 14.0466 2.56757V4.56757C14.1591 4.56757 14.2709 4.57042 14.3819 4.57604L14.4831 2.5786ZM16.8023 8.21622C16.8023 6.29726 16.2382 4.50982 15.2692 3.0296L13.5958 4.12504C14.3552 5.28504 14.8023 6.69277 14.8023 8.21622H16.8023ZM9.94896 3.61316C8.44231 4.43418 7.19683 5.69036 6.35998 7.21478L8.11317 8.17723C8.77129 6.97839 9.7447 6.00214 10.906 5.36934L9.94896 3.61316ZM7.39454 8.68344L10.1827 8.2374L9.86673 6.26251L7.0786 6.70856L7.39454 8.68344ZM11.0142 7.39442L11.417 4.63572L9.43795 4.34679L9.03519 7.10549L11.0142 7.39442ZM7.9534 1C10.2798 1 12.3512 2.22384 13.5958 4.12504L15.2692 3.0296C13.6855 0.610487 11.0082 -1 7.9534 -1V1ZM1.10449 8.21622C1.10449 4.18722 4.21346 1 7.9534 1V-1C3.02367 -1 -0.895508 3.16983 -0.895508 8.21622H1.10449ZM7.61814 15.424C4.03131 15.2422 1.10449 12.1235 1.10449 8.21622H-0.895508C-0.895508 13.1134 2.79255 17.182 7.51691 17.4214L7.61814 15.424ZM14.0466 19C11.7203 19 9.64881 17.7762 8.40419 15.875L6.73087 16.9704C8.31454 19.3895 10.9918 21 14.0466 21V19ZM20.8955 11.7838C20.8955 15.8128 17.7866 19 14.0466 19V21C18.9764 21 22.8955 16.8302 22.8955 11.7838H20.8955ZM14.3819 4.57604C17.9687 4.75781 20.8955 7.87646 20.8955 11.7838H22.8955C22.8955 6.8866 19.2075 2.81802 14.4831 2.5786L14.3819 4.57604Z" fill="#7CF335" mask="url(#path-1-inside-1_855_5110)"/>
</svg>
