<svg width="16" height="16" viewBox="0 0 16 16" fill="none" xmlns="http://www.w3.org/2000/svg">
<path d="M15 6.93146V6.405C15 5.10063 15 4.44912 14.606 4.04368C14.212 3.63892 13.5786 3.63892 12.3105 3.63892H10.9127C10.2961 3.63892 10.2908 3.63758 9.73607 3.3599L7.49643 2.23908C6.56117 1.77112 6.0932 1.53713 5.59498 1.55327C5.09676 1.56941 4.64561 1.83364 3.73993 2.36212L2.91494 2.84353C2.24998 3.23148 1.91783 3.42579 1.73562 3.74852C1.55273 4.07125 1.55273 4.46391 1.55273 5.24989V10.7747C1.55273 11.8067 1.55273 12.3231 1.78268 12.6102C1.93598 12.8018 2.15047 12.9302 2.38781 12.9733C2.74416 13.0371 3.1812 12.7823 4.05393 12.2727C4.64695 11.9264 5.21711 11.5667 5.92646 11.6642C6.52083 11.7462 7.07284 12.1214 7.604 12.387M5.58691 1.5526V11.638M10.2935 3.56967V6.59528" stroke="white" stroke-width="1.2" stroke-linecap="round" stroke-linejoin="round"/>
<path d="M11.9748 11.3017H11.9808M12.518 14.7872C12.3705 14.9245 12.1763 15.0004 11.9748 14.9997C11.7717 14.9997 11.5774 14.9237 11.4315 14.7866C10.0962 13.5293 8.30771 12.124 9.17977 10.0848C9.65176 8.9821 10.7847 8.27612 11.9748 8.27612C13.1649 8.27612 14.2985 8.9821 14.7698 10.0848C15.6412 12.122 13.8567 13.5346 12.518 14.7872Z" stroke="white" stroke-width="1.2" stroke-linecap="round" stroke-linejoin="round"/>
</svg>
