<svg width="15" height="16" viewBox="0 0 15 16" fill="none" xmlns="http://www.w3.org/2000/svg">
<path d="M10.3164 2.14514C12.2152 2.14514 13.7539 3.70764 13.7539 5.89514C13.7539 10.2701 9.06641 12.7701 7.50391 13.7076C5.94141 12.7701 1.25391 10.2701 1.25391 5.89514C1.25391 3.70764 2.81641 2.14514 4.69141 2.14514C5.85391 2.14514 6.87891 2.77014 7.50391 3.39514C8.12891 2.77014 9.15391 2.14514 10.3164 2.14514ZM8.08766 11.8976C8.63828 11.5501 9.13516 11.2045 9.60016 10.8345C11.4633 9.35327 12.5039 7.73452 12.5039 5.89514C12.5039 4.42014 11.5433 3.39514 10.3164 3.39514C9.64391 3.39514 8.91641 3.75139 8.38766 4.27889L7.50391 5.16264L6.62016 4.27889C6.09141 3.75139 5.36391 3.39514 4.69141 3.39514C3.47891 3.39514 2.50391 4.43014 2.50391 5.89514C2.50391 7.73514 3.54516 9.35327 5.40703 10.8345C5.87266 11.2045 6.36953 11.5501 6.92016 11.897C7.10703 12.0151 7.29203 12.1283 7.50391 12.2545C7.71578 12.1283 7.90078 12.0151 8.08766 11.8976V11.8976Z" fill="white"/>
</svg>
