<svg width="15" height="15" viewBox="0 0 15 15" fill="none" xmlns="http://www.w3.org/2000/svg">
<g id="Home">
<path id="Vector" d="M8.125 12.3749H11.875V6.73618L7.5 3.33368L3.125 6.73618V12.3749H6.875V8.62493H8.125V12.3749ZM13.125 12.9999C13.125 13.1657 13.0592 13.3247 12.9419 13.4419C12.8247 13.5591 12.6658 13.6249 12.5 13.6249H2.5C2.33424 13.6249 2.17527 13.5591 2.05806 13.4419C1.94085 13.3247 1.875 13.1657 1.875 12.9999V6.43118C1.87493 6.33593 1.89664 6.24194 1.93845 6.15636C1.98026 6.07079 2.04108 5.9959 2.11625 5.93743L7.11625 2.04868C7.22596 1.96333 7.361 1.91699 7.5 1.91699C7.639 1.91699 7.77404 1.96333 7.88375 2.04868L12.8837 5.93743C12.9589 5.9959 13.0197 6.07079 13.0616 6.15636C13.1034 6.24194 13.1251 6.33593 13.125 6.43118V12.9999Z" fill="white"/>
</g>
</svg>