<svg width="15" height="16" viewBox="0 0 15 16" fill="none" xmlns="http://www.w3.org/2000/svg">
<path fill-rule="evenodd" clip-rule="evenodd" d="M5.56115 5.13936L6.96051 3.15705C8.05076 1.61263 10.1866 1.24445 11.731 2.3347C13.2754 3.42495 13.6436 5.56077 12.5534 7.10519L11.154 9.0875L5.56115 5.13936ZM4.69608 6.36479L3.06841 8.67052C1.97816 10.2149 2.34634 12.3508 3.89076 13.441C5.43518 14.5313 7.571 14.1631 8.66125 12.6187L10.2889 10.3129L4.69608 6.36479ZM3.0257 14.6664C0.804492 13.0984 0.274973 10.0267 1.84298 7.80545L5.73509 2.29199C7.3031 0.0707814 10.3749 -0.458736 12.5961 1.10927C14.8173 2.67728 15.3468 5.74905 13.7788 7.97025L9.88667 13.4837C8.31867 15.7049 5.2469 16.2344 3.0257 14.6664Z" fill="#7CF335"/>
</svg>
