<svg width="76" height="80" viewBox="0 0 76 80" fill="none" xmlns="http://www.w3.org/2000/svg">
<path fill-rule="evenodd" clip-rule="evenodd" d="M48.7924 18.8523C48.7924 29.2641 40.7293 37.7046 30.7829 37.7046C30.4861 37.7046 30.1909 37.697 29.8975 37.6822C27.9146 34.6532 26.7545 30.9875 26.7545 27.0381C26.7545 23.654 27.6063 20.4781 29.0977 17.7326L35.5988 18.7727L36.5883 25.5499L37.5777 18.7726L44.2896 17.6989L37.6405 16.6351L36.6978 10.1779C39.1243 8.90331 41.8641 8.18586 44.764 8.18586C45.0608 8.18586 45.356 8.19338 45.6493 8.20824C47.6323 11.2373 48.7924 14.9029 48.7924 18.8523ZM36.4597 10.3053C33.3989 11.9732 30.8533 14.5343 29.1381 17.6586L35.5356 16.6352L36.4597 10.3053ZM45.6493 8.20824C42.4046 3.25171 36.9565 0 30.7829 0C20.8366 0 12.7734 8.44045 12.7734 18.8523C12.7734 28.9533 20.3624 37.199 29.8975 37.6822C33.1423 42.6387 38.5904 45.8904 44.764 45.8904C54.7103 45.8904 62.7734 37.45 62.7734 27.0381C62.7734 16.9371 55.1844 8.69145 45.6493 8.20824Z" fill="url(#paint0_linear_590_3823)"/>
<path fill-rule="evenodd" clip-rule="evenodd" d="M28.5166 74.5193V74.8819H27.4056H26.2946H25.1836H24.0726H22.9616H21.8506H20.7395V73.7709V72.6599H21.8506H22.9616H24.0726H25.1836H26.2946V71.5489V70.4379H25.1836H24.0726H22.9616H21.8506H20.7395V69.3269V68.2159H21.8506H22.9616H24.0726H25.1836H26.2946V67.1049H27.4056H28.5166V68.2159V69.3269V70.4379V71.5489V72.5763C28.5767 72.3861 28.651 72.1867 28.7394 71.9783C29.0159 71.3068 29.4307 70.6056 29.9837 69.8748C30.4183 69.3218 30.9713 68.7194 31.6428 68.0676C32.3144 67.4158 33.0452 66.8233 33.8352 66.29C34.6252 65.737 35.4153 65.3419 36.2053 65.1049C36.4226 65.0457 36.6497 65.0062 36.8868 64.9864C37.1238 64.9469 37.4102 64.9272 37.7459 64.9272C38.0619 64.9272 38.22 64.9667 38.22 65.0457C38.22 65.1444 38.0817 65.2234 37.8052 65.2827C37.5682 65.3419 37.2818 65.4407 36.946 65.579C36.6102 65.7172 36.3041 65.8653 36.0276 66.0234C35.4548 66.3394 34.8524 66.7739 34.2203 67.3269C33.5883 67.8602 32.9662 68.4725 32.3539 69.1638C31.6823 69.9143 31.1293 70.655 30.6948 71.3858C30.2602 72.0968 29.9739 72.6894 29.8356 73.1634C29.7961 73.3214 29.7763 73.4597 29.7763 73.5782C29.7763 73.8547 29.885 73.9929 30.1022 73.9929C30.2405 73.9929 30.4281 73.9337 30.6651 73.8152C30.9022 73.6769 31.2083 73.4498 31.5836 73.1338C32.3341 72.5017 33.0847 71.7808 33.8352 70.971C34.6055 70.1612 35.2968 69.3218 35.9091 68.4527C36.3831 67.7812 36.9361 67.0702 37.5682 66.3196C38.2002 65.5493 38.8619 64.8087 39.5532 64.0976C40.2444 63.3668 40.916 62.7052 41.5678 62.1126C42.2393 61.5201 42.8417 61.0461 43.375 60.6905C43.9873 60.2758 44.4119 60.0388 44.6489 59.9795C44.9057 59.9203 45.123 59.8906 45.3007 59.8906C45.123 60.0289 44.7378 60.3844 44.1453 60.9572C43.5725 61.5102 42.8812 62.2114 42.0714 63.0607C41.2814 63.91 40.4518 64.8284 39.5828 65.816C38.7335 66.8035 37.9533 67.7911 37.2423 68.7786C36.6892 69.5292 36.1658 70.3094 35.6721 71.1191C35.1783 71.9092 34.8524 72.5412 34.6944 73.0153C34.6351 73.1733 34.5956 73.3115 34.5759 73.43C34.5561 73.5485 34.5462 73.6572 34.5462 73.7559C34.5462 74.0719 34.6746 74.23 34.9314 74.23C35.1091 74.23 35.3165 74.1608 35.5536 74.0226C35.8103 73.8646 36.0671 73.6868 36.3238 73.4893C36.6596 73.2128 36.9855 72.9066 37.3015 72.5709C37.6373 72.2351 37.9336 71.9092 38.1903 71.5932C38.1944 71.5932 38.1984 71.5933 38.2022 71.5936L38.2025 71.5931C38.5383 70.9216 38.9629 70.2599 39.4765 69.6081C39.99 68.9366 40.5134 68.3144 41.0467 67.7416C41.58 67.1491 42.0441 66.6652 42.4391 66.2899C42.6109 66.1182 42.7847 65.9671 42.9606 65.8367V64.8828H44.0716H45.1826H46.2936H47.4046H48.5156H49.6266H50.7376V65.9938V67.1048H49.6266H48.5156H47.4046H46.2936H45.1826V68.2158V69.3268V70.4378V71.5488V72.6598V73.7708V74.8818H44.0716H42.9606V73.7708V72.6598V72.4363C42.296 73.1868 41.6877 73.7846 41.1356 74.2299C40.543 74.7039 39.8814 74.9409 39.1506 74.9409C38.6173 74.9409 38.242 74.8027 38.0248 74.5261C37.7877 74.2299 37.6692 73.8645 37.6692 73.4299C37.6692 73.1733 37.7049 72.9088 37.7763 72.6363C37.6141 72.8041 37.4361 72.9798 37.2423 73.1634C36.8868 73.5189 36.5312 73.8349 36.1757 74.1114C35.9189 74.3287 35.6227 74.5163 35.2869 74.6744C34.9511 74.8324 34.6252 74.9114 34.3092 74.9114C33.855 74.9114 33.5291 74.8027 33.3315 74.5855C33.1538 74.3682 33.0649 74.0917 33.0649 73.7559C33.0649 73.4202 33.134 73.0548 33.2723 72.6597C33.4106 72.2647 33.5784 71.8796 33.7759 71.5043C33.4402 71.8598 33.0748 72.245 32.6798 72.6597C32.2847 73.0548 32.028 73.3016 31.9095 73.4004C31.4749 73.7954 31.0602 74.1411 30.6651 74.4373C30.2701 74.7139 29.8553 74.8719 29.4208 74.9114C28.9958 74.9343 28.6944 74.8037 28.5166 74.5193ZM50.7376 67.1048H51.8486H52.9596V68.2158V69.3268V70.4378V71.5488V72.6598V73.7708V74.8818H51.8486H50.7376V73.7708V72.6598V71.5488V70.4378V69.3268V68.2158V67.1048ZM26.2946 67.1049V65.9939V64.8829H25.1836H24.0726H22.9616H21.8506H20.7395H19.6285H18.5175V65.9939V67.1049H19.6285H20.7395H21.8506H22.9616H24.0726H25.1836H26.2946ZM18.5733 70.4379C18.1057 69.6533 17.4796 69.0272 16.6951 68.5595C15.8735 68.0697 14.9491 67.8248 13.922 67.8248C12.9108 67.8248 11.9864 68.0697 11.149 68.5595C10.3273 69.0493 9.6716 69.713 9.18177 70.5504C8.818 71.1931 8.59381 71.8962 8.5092 72.6598H7.77701H6.66601H5.55501H4.44401H3.333H2.222V71.5488V70.4378V69.3268V68.2158V67.1048V65.9938V64.8828V63.7718V62.6608V61.5498H1.111H0V62.6608V63.7718V64.8828V65.9938V67.1048V68.2158V69.3268V70.4378V71.5488V72.6598V73.7708V74.8818H1.111H2.222H3.333H4.44401H5.55501H6.66601H7.77701H8.66403C8.78232 75.3224 8.9549 75.7431 9.18177 76.1439C9.6716 76.9656 10.3273 77.6213 11.149 78.1112C11.9864 78.601 12.9108 78.8459 13.922 78.8459C14.9491 78.8459 15.8735 78.601 16.6951 78.1112C17.5167 77.6213 18.1646 76.9656 18.6386 76.1439C19.1284 75.3065 19.3734 74.3821 19.3734 73.3709C19.3734 73.1283 19.3601 72.8914 19.3336 72.6599H19.6285H20.7395V71.5489V70.4379H19.6285H18.5733ZM42.9606 71.8544V71.5488V70.4378V69.3268V68.2158V67.4668C42.3153 68.2648 41.6773 69.107 41.0467 69.9933C40.9874 70.0723 40.8492 70.2698 40.6319 70.5858C40.4146 70.9018 40.1678 71.2672 39.8912 71.682C39.6345 72.0967 39.4073 72.5016 39.2098 72.8967C39.0321 73.2917 38.9432 73.6077 38.9432 73.8447C38.9432 74.22 39.1407 74.4076 39.5357 74.4076C39.832 74.4076 40.148 74.299 40.4838 74.0817C40.8393 73.8645 41.1948 73.5978 41.5503 73.2818C41.9059 72.9658 42.2219 72.6597 42.4984 72.3634C42.6778 72.172 42.8319 72.0024 42.9606 71.8544ZM58.5123 79.3258H59.6233H60.7343V78.2148V77.1038H61.8453H62.9563V75.9928V74.8818V73.7708V72.6598V71.5488V70.4378V69.3268V68.2158V67.1048V65.9938V64.8828H61.8453H60.7343H59.6233H58.5123H57.4013H56.2903V65.9938V67.1048H55.1793H54.0683V68.2158V69.3268H55.1793H56.2903V70.4378V71.5488H57.4013H58.5123H59.6233H60.7343V72.6598V73.7708V74.8818V75.9928V77.1038H59.6233H58.5123H57.4013H56.2903V75.9928V74.8818H55.1793H54.0683V75.9928V77.1038H55.1793H56.2903V78.2148V79.3258H57.4013H58.5123ZM56.2903 69.3268V68.2158V67.1048H57.4013H58.5123H59.6233H60.7343V68.2158V69.3268H59.6233H58.5123H57.4013H56.2903ZM73.3254 74.8818H74.4364H75.5474V73.7708V72.6598H74.4364H73.3254V73.7708V74.8818ZM71.1048 74.8818H69.9938V73.7708V72.6598H71.1048H72.2158V73.7708V74.8818H71.1048ZM66.6605 74.8818H67.7715H68.8825V73.7708V72.6598H67.7715H66.6605V73.7708V74.8818ZM13.922 78.2534C14.7753 78.2534 15.4626 78.0401 15.9841 77.6134C16.5055 77.171 16.8847 76.5864 17.1217 75.8595C17.3587 75.1169 17.4772 74.2873 17.4772 73.3709C17.4772 72.4228 17.3587 71.5775 17.1217 70.8348C16.8847 70.0922 16.5055 69.5076 15.9841 69.0809C15.4626 68.6385 14.7753 68.4173 13.922 68.4173C13.0688 68.4173 12.3815 68.6385 11.86 69.0809C11.3386 69.5076 10.9594 70.0922 10.7224 70.8348C10.4853 71.5775 10.3668 72.4228 10.3668 73.3709C10.3668 74.2873 10.4853 75.1169 10.7224 75.8595C10.9594 76.5864 11.3386 77.171 11.86 77.6134C12.3815 78.0401 13.0688 78.2534 13.922 78.2534ZM44.987 63.268C44.987 63.584 45.1845 63.742 45.5796 63.742C45.8956 63.7223 46.1918 63.584 46.4684 63.3272C46.7449 63.0705 46.8831 62.794 46.8831 62.4977C46.8831 62.1817 46.6955 62.0237 46.3202 62.0237C46.0832 62.0237 45.8363 62.1224 45.5796 62.3199C45.3426 62.4977 45.1747 62.7051 45.0759 62.9421C45.0167 63.0606 44.987 63.1692 44.987 63.268Z" fill="black"/>
<defs>
<linearGradient id="paint0_linear_590_3823" x1="37.7734" y1="0" x2="37.7734" y2="45.8904" gradientUnits="userSpaceOnUse">
<stop stop-color="#7CF335"/>
<stop offset="1" stop-color="#674EFF"/>
</linearGradient>
</defs>
</svg>
