<svg width="18" height="22" viewBox="0 0 18 22" fill="none" xmlns="http://www.w3.org/2000/svg">
<path d="M9 21.9115L2.636 15.5475C1.37734 14.2888 0.520187 12.6852 0.172928 10.9394C-0.17433 9.19354 0.00390685 7.38395 0.685099 5.73942C1.36629 4.09489 2.51984 2.68929 3.99988 1.70036C5.47992 0.711432 7.21998 0.183594 9 0.183594C10.78 0.183594 12.5201 0.711432 14.0001 1.70036C15.4802 2.68929 16.6337 4.09489 17.3149 5.73942C17.9961 7.38395 18.1743 9.19354 17.8271 10.9394C17.4798 12.6852 16.6227 14.2888 15.364 15.5475L9 21.9115ZM13.95 14.1335C14.9289 13.1545 15.5955 11.9072 15.8656 10.5494C16.1356 9.19154 15.9969 7.78411 15.4671 6.50507C14.9373 5.22603 14.04 4.13282 12.8889 3.36368C11.7378 2.59455 10.3844 2.18402 9 2.18402C7.61557 2.18402 6.26222 2.59455 5.11109 3.36368C3.95996 4.13282 3.06275 5.22603 2.53292 6.50507C2.00308 7.78411 1.86442 9.19154 2.13445 10.5494C2.40449 11.9072 3.07111 13.1545 4.05 14.1335L9 19.0835L13.95 14.1335ZM9 11.1835C8.46957 11.1835 7.96086 10.9728 7.58579 10.5977C7.21072 10.2227 7 9.71395 7 9.18352C7 8.65308 7.21072 8.14438 7.58579 7.7693C7.96086 7.39423 8.46957 7.18352 9 7.18352C9.53044 7.18352 10.0391 7.39423 10.4142 7.7693C10.7893 8.14438 11 8.65308 11 9.18352C11 9.71395 10.7893 10.2227 10.4142 10.5977C10.0391 10.9728 9.53044 11.1835 9 11.1835Z" fill="#11152A"/>
</svg>
