<svg width="189" height="78" viewBox="0 0 189 78" fill="none" xmlns="http://www.w3.org/2000/svg">
<path fill-rule="evenodd" clip-rule="evenodd" d="M173.822 19.5031C173.822 30.0849 165.627 38.6632 155.518 38.6632C155.217 38.6632 154.917 38.6556 154.619 38.6405C152.603 35.562 151.424 31.8364 151.424 27.8226C151.424 24.3831 152.29 21.1553 153.806 18.3649L160.414 19.422L161.419 26.31L162.425 19.422L169.246 18.3307L162.489 17.2496L161.53 10.6868C163.996 9.39151 166.781 8.66244 169.728 8.66244C170.03 8.66244 170.33 8.67009 170.628 8.68519C172.643 11.7637 173.822 15.4892 173.822 19.5031ZM161.288 10.8162C158.177 12.5113 155.59 15.1144 153.847 18.2899L160.349 17.2496L161.288 10.8162ZM170.628 8.68519C167.33 3.64772 161.793 0.342896 155.518 0.342896C145.41 0.342896 137.215 8.9212 137.215 19.5031C137.215 29.7691 144.928 38.1494 154.619 38.6405C157.916 43.678 163.453 46.9828 169.728 46.9828C179.837 46.9828 188.031 38.4045 188.031 27.8226C188.031 17.5566 180.319 9.17629 170.628 8.68519Z" fill="url(#paint0_linear_235_3994)"/>
<path fill-rule="evenodd" clip-rule="evenodd" d="M33.8577 58.786H30.1814H26.5052H22.829H19.1527H15.4765H11.8002H8.12398V55.1097V51.4335H11.8002H15.4765H19.1527H22.829H26.5052H30.1814H33.8577V47.7572V44.081H37.0742V44.0807H40.7505H44.4267H48.103H51.7792H55.4554H59.1317H62.8079V47.7569V51.4332H59.1317H55.4554H51.7792H48.103H44.4267H41.2102V51.4335H37.5339V55.1097V58.786H33.8577ZM44.4267 69.8144V73.4907V77.1669H48.103H51.7792H55.4554H59.1317H62.8079H66.4842H70.1604V73.4907V69.8144V66.1382V62.4619V58.7857V55.1094V51.4332H66.4842H62.8079V55.1094H59.1317H55.4554H51.7792H48.103H44.4267V58.7857V62.4619H40.7505H37.0742V66.1382V69.8144H40.7505H44.4267ZM44.4267 69.8144V66.1382V62.4619H48.103H51.7792H55.4554H59.1317H62.8079V66.1382V69.8144H59.1317H55.4554H51.7792H48.103H44.4267ZM8.12398 22.0235V25.6998V29.376V33.0522V36.7285V40.4047V44.081V47.7572V51.4335H4.44773H0.771484V47.7572V44.081V40.4047V36.7285V33.0522V29.376V25.6998V22.0235H4.44773H8.12398ZM8.12398 22.0235H11.8002H15.4765H19.1527H22.829H26.5052H30.1814H33.8577V25.6998V29.376H37.5339H41.2102V25.6998V22.0235H37.5339V18.3473V14.671H33.8577H30.1814H26.5052H22.829H19.1527H15.4765H11.8002H8.12398V18.3473V22.0235ZM70.7598 75.9175V77.2703L77.9946 77.0939L85.2295 77.2703V75.9175L84.2884 75.7998C83.1512 75.643 82.2689 75.4469 81.6415 75.2116C81.0533 75.0156 80.6415 74.5254 80.4062 73.7411C80.171 72.9961 80.0533 71.7413 80.0533 69.9767V57.9186C80.9552 58.7813 82.0924 59.5655 83.4649 60.2714C84.8373 60.938 86.347 61.2713 87.994 61.2713C90.3468 61.2713 92.4251 60.6635 94.2289 59.4479C95.4443 58.6462 96.4892 57.6655 97.3636 56.5057C97.3634 56.5304 97.3633 56.5552 97.3633 56.58C97.3633 57.928 97.6084 59.0309 98.0985 59.8886C98.5274 60.7464 99.0789 61.4204 99.7528 61.9106C100.611 62.5233 101.591 62.9522 102.694 63.1973C103.858 63.4424 105.053 63.5649 106.278 63.5649C107.749 63.5649 109.28 63.3504 110.873 62.9216C112.467 62.5539 114.029 61.788 115.561 60.6239C117.276 59.3372 119.421 57.3153 121.994 54.5581C122.239 54.2517 122.362 53.8228 122.362 53.2714C122.362 52.9038 122.239 52.72 121.994 52.72C121.627 53.1489 121.014 53.8228 120.156 54.7419C119.298 55.661 118.624 56.3656 118.134 56.8558C117.521 57.4072 116.694 58.1424 115.653 59.0615C114.672 59.9193 113.447 60.6852 111.976 61.3592C110.506 62.0331 108.668 62.3701 106.462 62.3701C108.116 62.0025 109.495 61.3285 110.598 60.3482C111.762 59.3066 112.681 58.2037 113.355 57.0396C114.029 55.8141 114.519 54.7113 114.825 53.7309C115.254 52.3217 115.591 50.698 115.836 48.8599C116.143 46.9605 116.357 45.0918 116.48 43.2536C116.602 41.3542 116.694 39.6693 116.755 38.1988C116.878 36.667 116.97 35.5335 117.031 34.7983C118.686 33.3278 120.309 32.1024 121.902 31.122C121.964 31.0858 122.026 31.0501 122.088 31.0148V32.1334V35.8096V39.4859V43.1621V46.8384H125.764H129.44V50.5146V54.1909H133.117H136.793H140.469H144.145V57.8671V61.5434H140.469H136.793H133.117H129.44H125.764H122.088V65.2196V68.8959H125.764H129.44H133.117H136.793H140.469H144.145V65.2196V61.5434H147.822H151.498V57.8671V54.1909V50.5146V46.8384V43.1621V39.4859V35.8096V32.1334V28.4572H147.822H144.145V32.1334V35.8096V39.4859V43.1621V46.8384H140.469H136.793H133.117H129.44V43.1621V39.4859V35.8096V32.1334V28.4572H129.019C129.054 28.3096 129.071 28.1563 129.071 27.9972C129.071 27.3232 128.826 26.7412 128.336 26.251C127.907 25.7608 127.172 25.5157 126.13 25.5157C124.782 25.5157 123.495 25.8834 122.27 26.6186C121.106 27.2926 120.033 28.1198 119.053 29.1001C118.134 30.0804 117.246 30.9995 116.388 31.8573C115.04 33.389 113.6 35.1353 112.068 37.0959C110.536 38.9953 109.035 40.8947 107.565 42.7941C106.156 44.6935 104.869 46.4397 103.705 48.0328C102.541 49.5645 101.622 50.7593 100.948 51.6171C100.476 51.6171 100.022 51.747 99.5871 52.0068C99.9755 50.6449 100.17 49.204 100.17 47.6839C100.17 45.0958 99.6404 42.7626 98.5816 40.6843C97.5228 38.606 96.0916 36.9591 94.2877 35.7435C92.5231 34.5279 90.5037 33.92 88.2293 33.92C86.4647 33.92 84.8569 34.3122 83.4061 35.0964C81.9944 35.8415 80.7395 36.8414 79.6416 38.0963L80.0533 34.0965C78.4456 34.371 76.8966 34.5867 75.4065 34.7435C73.9164 34.9004 72.3675 34.9788 70.7598 34.9788V36.3317C71.8185 36.3317 72.74 36.4297 73.5243 36.6258C74.3086 36.7826 74.8968 37.1944 75.2889 37.861C75.7202 38.4884 75.9359 39.5079 75.9359 40.9196V69.9767C75.9359 71.7413 75.8183 72.9961 75.583 73.7411C75.3477 74.5254 74.9164 75.0156 74.289 75.2116C73.7008 75.4469 72.8381 75.643 71.7009 75.7998L70.7598 75.9175ZM83.2296 36.861C84.4844 36.0768 85.9157 35.6846 87.5234 35.6846C89.3273 35.6846 90.7978 36.214 91.9349 37.2728C93.1113 38.3315 93.9936 39.7628 94.5818 41.5666C95.17 43.3704 95.4641 45.4095 95.4641 47.6839C95.4641 49.9191 95.17 51.9386 94.5818 53.7424C93.9936 55.507 93.1113 56.9186 91.9349 57.9774C90.7585 58.9969 89.2684 59.5067 87.4646 59.5067C85.8569 59.5067 84.3864 59.095 83.0531 58.2715C81.7199 57.448 80.7199 56.5265 80.0533 55.507V39.6256C80.9552 38.5276 82.014 37.6061 83.2296 36.861ZM105.911 60.6239C105.053 61.4204 104.103 61.8187 103.061 61.8187C102.204 61.8187 101.53 61.4511 101.04 60.7158C100.549 59.9806 100.304 59.0309 100.304 57.8667C100.304 56.8251 100.519 55.7222 100.948 54.5581C101.377 53.394 101.989 52.2911 102.786 51.2495C103.705 50.0853 104.869 48.6148 106.278 46.838C107.687 45.0611 109.219 43.1924 110.873 41.2317C112.589 39.271 114.305 37.4635 116.02 35.8092C115.591 37.5248 115.04 39.5774 114.366 41.9669C113.692 44.2952 112.987 46.5929 112.252 48.8599C111.517 51.1269 110.812 52.9957 110.138 54.4662C109.709 55.4465 109.127 56.5188 108.392 57.6829C107.657 58.7858 106.83 59.7661 105.911 60.6239Z" fill="black"/>
<defs>
<linearGradient id="paint0_linear_235_3994" x1="162.623" y1="0.342896" x2="162.623" y2="46.9828" gradientUnits="userSpaceOnUse">
<stop stop-color="#7CF335"/>
<stop offset="1" stop-color="#674EFF"/>
</linearGradient>
</defs>
</svg>
