<svg width="188" height="77" viewBox="0 0 188 77" fill="none" xmlns="http://www.w3.org/2000/svg">
<path fill-rule="evenodd" clip-rule="evenodd" d="M173.306 19.1963C173.306 29.7782 165.112 38.3565 155.003 38.3565C154.701 38.3565 154.401 38.3488 154.103 38.3337C152.088 35.2552 150.909 31.5297 150.909 27.5159C150.909 24.0764 151.774 20.8485 153.29 18.0581L159.898 19.1152L160.903 26.0032L161.909 19.1152L168.731 18.0239L161.973 16.9428L161.015 10.38C163.481 9.08475 166.265 8.35568 169.212 8.35568C169.514 8.35568 169.814 8.36332 170.112 8.37843C172.127 11.4569 173.306 15.1825 173.306 19.1963ZM160.773 10.5094C157.662 12.2046 155.074 14.8076 153.331 17.9831L159.834 16.9429L160.773 10.5094ZM170.112 8.37843C166.814 3.34095 161.277 0.0361328 155.003 0.0361328C144.894 0.0361328 136.699 8.61443 136.699 19.1963C136.699 29.4623 144.412 37.8426 154.103 38.3337C157.401 43.3712 162.938 46.676 169.212 46.676C179.321 46.676 187.516 38.0977 187.516 27.5159C187.516 17.2498 179.803 8.86953 170.112 8.37843Z" fill="url(#paint0_linear_428_3882)"/>
<path fill-rule="evenodd" clip-rule="evenodd" d="M33.3421 58.4792H29.6658H25.9896H22.3133H18.6371H14.9608H11.2846H7.60835V54.803V51.1267H11.2846H14.9608H18.6371H22.3133H25.9896H29.6658H33.3421V47.4505V43.7742H36.5586V43.7739H40.2348H43.9111H47.5873H51.2636H54.9398H58.6161H62.2923V47.4502V51.1264H58.6161H54.9398H51.2636H47.5873H43.9111H40.6946V51.1267H37.0183V54.803V58.4792H33.3421ZM43.9111 69.5076V73.1839V76.8601H47.5873H51.2636H54.9398H58.6161H62.2923H65.9686H69.6448V73.1839V69.5076V65.8314V62.1552V58.4789V54.8027V51.1264H65.9686H62.2923V54.8027H58.6161H54.9398H51.2636H47.5873H43.9111V58.4789V62.1552H40.2348H36.5586V65.8314V69.5076H40.2348H43.9111ZM43.9111 69.5076V65.8314V62.1552H47.5873H51.2636H54.9398H58.6161H62.2923V65.8314V69.5076H58.6161H54.9398H51.2636H47.5873H43.9111ZM7.60835 21.7167V25.393V29.0692V32.7455V36.4217V40.098V43.7742V47.4505V51.1267H3.93211H0.255859V47.4505V43.7742V40.098V36.4217V32.7455V29.0692V25.393V21.7167H3.93211H7.60835ZM7.60835 21.7167H11.2846H14.9608H18.6371H22.3133H25.9896H29.6658H33.3421V25.393V29.0692H37.0183H40.6946V25.393V21.7167H37.0183V18.0405V14.3643H33.3421H29.6658H25.9896H22.3133H18.6371H14.9608H11.2846H7.60835V18.0405V21.7167ZM70.2441 75.6107V76.9636L77.479 76.7871L84.7138 76.9636V75.6107L83.7727 75.4931C82.6355 75.3362 81.7532 75.1402 81.1258 74.9049C80.5376 74.7088 80.1259 74.2187 79.8906 73.4344C79.6553 72.6893 79.5377 71.4345 79.5377 69.6699V57.6118C80.4396 58.4745 81.5768 59.2588 82.9492 59.9646C84.3217 60.6312 85.8314 60.9646 87.4784 60.9646C89.8312 60.9646 91.9095 60.3568 93.7133 59.1411C94.9287 58.3395 95.9736 57.3587 96.8479 56.1989C96.8478 56.2236 96.8477 56.2484 96.8477 56.2733C96.8477 57.6212 97.0927 58.7241 97.5829 59.5819C98.0118 60.4397 98.5632 61.1137 99.2372 61.6038C100.095 62.2165 101.075 62.6454 102.178 62.8905C103.342 63.1356 104.537 63.2581 105.763 63.2581C107.233 63.2581 108.765 63.0437 110.358 62.6148C111.951 62.2472 113.513 61.4813 115.045 60.3171C116.761 59.0305 118.905 57.0085 121.479 54.2513C121.724 53.945 121.846 53.5161 121.846 52.9646C121.846 52.597 121.724 52.4132 121.479 52.4132C121.111 52.8421 120.498 53.5161 119.64 54.4351C118.783 55.3542 118.109 56.0588 117.618 56.549C117.006 57.1004 116.179 57.8357 115.137 58.7547C114.157 59.6125 112.931 60.3784 111.461 61.0524C109.99 61.7264 108.152 62.0634 105.946 62.0634C107.601 61.6957 108.979 61.0217 110.082 60.0414C111.246 58.9998 112.165 57.8969 112.839 56.7328C113.513 55.5074 114.003 54.4045 114.31 53.4242C114.739 52.0149 115.076 50.3913 115.321 48.5531C115.627 46.6538 115.842 44.785 115.964 42.9469C116.087 41.0475 116.179 39.3625 116.24 37.892C116.362 36.3603 116.454 35.2268 116.516 34.4915C118.17 33.021 119.794 31.7956 121.387 30.8153C121.449 30.779 121.511 30.7433 121.572 30.708V31.8266V35.5029V39.1791V42.8554V46.5316H125.249H128.925V50.2079V53.8841H132.601H136.277H139.953H143.63V57.5604V61.2366H139.953H136.277H132.601H128.925H125.249H121.572V64.9128V68.5891H125.249H128.925H132.601H136.277H139.953H143.63V64.9128V61.2366H147.306H150.982V57.5604V53.8841V50.2079V46.5316V42.8554V39.1791V35.5029V31.8266V28.1504H147.306H143.63V31.8266V35.5029V39.1791V42.8554V46.5316H139.953H136.277H132.601H128.925V42.8554V39.1791V35.5029V31.8266V28.1504H128.504C128.538 28.0028 128.555 27.8495 128.555 27.6904C128.555 27.0165 128.31 26.4344 127.82 25.9442C127.391 25.4541 126.656 25.209 125.614 25.209C124.266 25.209 122.98 25.5766 121.754 26.3119C120.59 26.9858 119.518 27.813 118.538 28.7933C117.618 29.7737 116.73 30.6927 115.872 31.5505C114.524 33.0823 113.084 34.8285 111.553 36.7892C110.021 38.6886 108.52 40.5879 107.049 42.4873C105.64 44.3867 104.353 46.133 103.189 47.726C102.025 49.2578 101.106 50.4525 100.432 51.3103C99.9599 51.3103 99.5064 51.4402 99.0715 51.7C99.4599 50.3382 99.6541 48.8972 99.6541 47.3771C99.6541 44.7891 99.1247 42.4559 98.066 40.3776C97.0072 38.2993 95.5759 36.6523 93.7721 35.4367C92.0075 34.2211 89.988 33.6133 87.7137 33.6133C85.9491 33.6133 84.3413 34.0054 82.8904 34.7897C81.4788 35.5347 80.2239 36.5347 79.126 37.7895L79.5377 33.7897C77.9299 34.0642 76.381 34.2799 74.8909 34.4368C73.4008 34.5936 71.8519 34.672 70.2441 34.672V36.0249C71.3029 36.0249 72.2244 36.1229 73.0087 36.319C73.7929 36.4759 74.3811 36.8876 74.7733 37.5542C75.2046 38.1816 75.4203 39.2012 75.4203 40.6129V69.6699C75.4203 71.4345 75.3027 72.6893 75.0674 73.4344C74.8321 74.2187 74.4007 74.7088 73.7733 74.9049C73.1851 75.1402 72.3224 75.3362 71.1853 75.4931L70.2441 75.6107ZM82.714 36.5543C83.9688 35.77 85.4001 35.3779 87.0078 35.3779C88.8116 35.3779 90.2821 35.9073 91.4193 36.966C92.5957 38.0248 93.478 39.4561 94.0662 41.2599C94.6544 43.0637 94.9485 45.1028 94.9485 47.3771C94.9485 49.6123 94.6544 51.6318 94.0662 53.4356C93.478 55.2002 92.5957 56.6119 91.4193 57.6706C90.2429 58.6902 88.7528 59.2 86.949 59.2C85.3413 59.2 83.8708 58.7882 82.5375 57.9647C81.2043 57.1413 80.2043 56.2197 79.5377 55.2002V39.3188C80.4396 38.2208 81.4984 37.2993 82.714 36.5543ZM105.395 60.3171C104.537 61.1137 103.587 61.5119 102.546 61.5119C101.688 61.5119 101.014 61.1443 100.524 60.409C100.034 59.6738 99.7887 58.7241 99.7887 57.56C99.7887 56.5183 100.003 55.4155 100.432 54.2513C100.861 53.0872 101.474 51.9843 102.27 50.9427C103.189 49.7786 104.353 48.3081 105.763 46.5312C107.172 44.7544 108.704 42.8856 110.358 40.9249C112.073 38.9643 113.789 37.1568 115.505 35.5025C115.076 37.2181 114.524 39.2706 113.85 41.6602C113.176 43.9885 112.472 46.2861 111.736 48.5531C111.001 50.8202 110.297 52.6889 109.623 54.1594C109.194 55.1398 108.612 56.212 107.876 57.3761C107.141 58.479 106.314 59.4593 105.395 60.3171Z" fill="white"/>
<defs>
<linearGradient id="paint0_linear_428_3882" x1="162.108" y1="0.0361328" x2="162.108" y2="46.676" gradientUnits="userSpaceOnUse">
<stop stop-color="#7CF335"/>
<stop offset="1" stop-color="#674EFF"/>
</linearGradient>
</defs>
</svg>
