<svg width="50" height="20" viewBox="0 0 50 20" fill="none" xmlns="http://www.w3.org/2000/svg">
<path id="logo" fill-rule="evenodd" clip-rule="evenodd" d="M10.9756 14.0945H9.75608H8.53657H7.31706H6.09755H4.87804H3.65853H2.43902V12.9199V11.7454H3.65853H4.87804H6.09755H7.31706H8.53657H9.75608H10.9756V10.5708V9.39631H12.1951H13.4146V9.39633H14.482H15.7015H16.921H18.1405H19.36H20.5795V10.5709V11.7454H19.36H18.1405H16.921H15.7015H14.482H13.2625H12.1951V12.9199V14.0945H10.9756ZM14.482 17.6181V18.7926V19.9672H15.7015H16.921H18.1405H19.36H20.5795H21.799H23.0186V18.7926V17.6181V16.4436V15.269V14.0945V12.9199V11.7454H21.799H20.5795V12.9199H19.36H18.1405H16.921H15.7015H14.482V14.0945V15.269H13.2625H12.043V16.4436V17.6181H13.2625H14.482ZM14.482 17.6181V16.4436V15.269H15.7015H16.921H18.1405H19.36H20.5795V16.4436V17.6181H19.36H18.1405H16.921H15.7015H14.482ZM2.43902 2.34908V3.52362V4.69815V5.87269V7.04723V8.22177V9.39631V10.5708V11.7454H1.21951H0V10.5708V9.39631V8.22177V7.04723V5.87269V4.69815V3.52362V2.34908H1.21951H2.43902ZM2.43902 2.34908H3.65853H4.87804H6.09755H7.31706H8.53657H9.75608H10.9756V3.52362V4.69815H12.1951H13.4146V3.52362V2.34908H12.1951V1.17454V0H10.9756H9.75608H8.53657H7.31706H6.09755H4.87804H3.65853H2.43902V1.17454V2.34908ZM23.2168 19.5677V19.9999L25.6168 19.9436L28.0168 19.9999V19.5677L27.7046 19.5301C27.3274 19.48 27.0347 19.4174 26.8265 19.3422C26.6314 19.2796 26.4948 19.123 26.4168 18.8724C26.3387 18.6343 26.2997 18.2334 26.2997 17.6697V13.8172C26.5989 14.0928 26.9761 14.3434 27.4314 14.5689C27.8867 14.7819 28.3875 14.8884 28.9339 14.8884C29.7143 14.8884 30.4038 14.6942 31.0022 14.3058C31.4058 14.0493 31.7528 13.7355 32.0431 13.3644C32.043 13.3728 32.043 13.3813 32.043 13.3898C32.043 13.8205 32.1243 14.1729 32.2869 14.4469C32.4291 14.721 32.6121 14.9363 32.8357 15.0929C33.1202 15.2887 33.4454 15.4257 33.8113 15.504C34.1974 15.5823 34.5938 15.6215 35.0003 15.6215C35.4881 15.6215 35.9962 15.5529 36.5247 15.4159C37.0531 15.2985 37.5714 15.0538 38.0795 14.6818C38.6487 14.2707 39.36 13.6247 40.2137 12.7438C40.295 12.646 40.3356 12.5089 40.3356 12.3328C40.3356 12.2153 40.295 12.1566 40.2137 12.1566C40.0917 12.2936 39.8885 12.5089 39.6039 12.8026C39.3194 13.0962 39.0958 13.3213 38.9332 13.4779C38.7299 13.6541 38.4556 13.889 38.11 14.1827C37.7848 14.4567 37.3783 14.7014 36.8905 14.9167C36.4027 15.1321 35.793 15.2397 35.0613 15.2397C35.61 15.1223 36.0674 14.9069 36.4332 14.5937C36.8194 14.261 37.1243 13.9086 37.3478 13.5367C37.5714 13.1451 37.734 12.7928 37.8356 12.4796C37.9779 12.0293 38.0897 11.5106 38.171 10.9233C38.2726 10.3165 38.3438 9.7194 38.3844 9.13213C38.4251 8.52529 38.4556 7.98696 38.4759 7.51714C38.5165 7.02775 38.547 6.6656 38.5673 6.4307C39.1161 5.96088 39.6547 5.56937 40.1832 5.25616C40.2036 5.2447 40.2239 5.23341 40.2441 5.22226V5.57913V6.75367V7.92821V9.10275V10.2773H41.4636H42.6832V11.4518V12.6264H43.9027H45.1222H46.3417H47.5612V13.8009V14.9754H46.3417H45.1222H43.9027H42.6832H41.4636H40.2441V16.15V17.3245H41.4636H42.6832H43.9027H45.1222H46.3417H47.5612V16.15V14.9754H48.7807H50.0002V13.8009V12.6264V11.4518V10.2773V9.10275V7.92821V6.75367V5.57913V4.4046H48.7807H47.5612V5.57913V6.75367V7.92821V9.10275V10.2773H46.3417H45.1222H43.9027H42.6832V9.10275V7.92821V6.75367V5.57913V4.4046H42.5442C42.5555 4.35749 42.5612 4.30856 42.5612 4.2578C42.5612 4.04247 42.4799 3.8565 42.3173 3.69989C42.1751 3.54329 41.9312 3.46499 41.5856 3.46499C41.1385 3.46499 40.7117 3.58244 40.3052 3.81735C39.919 4.03268 39.5633 4.29695 39.2381 4.61016C38.9332 4.92337 38.6385 5.21701 38.3539 5.49106C37.9068 5.98046 37.4291 6.53836 36.921 7.16478C36.4129 7.77163 35.9149 8.37847 35.4271 8.98532C34.9596 9.59216 34.5328 10.1501 34.1466 10.659C33.7604 11.1484 33.4556 11.5301 33.232 11.8042C33.0749 11.8042 32.924 11.846 32.7793 11.9295C32.9083 11.4941 32.9729 11.0333 32.9729 10.5473C32.9729 9.72038 32.7973 8.97494 32.4461 8.31094C32.0948 7.64693 31.62 7.12074 31.0217 6.73236C30.4363 6.34398 29.7664 6.14979 29.0119 6.14979C28.4265 6.14979 27.8932 6.27507 27.4119 6.52564C26.9436 6.76368 26.5274 7.08315 26.1631 7.48406L26.2997 6.20616C25.7664 6.29386 25.2526 6.36277 24.7583 6.41288C24.264 6.46299 23.7501 6.48805 23.2168 6.48805V6.92028C23.568 6.92028 23.8737 6.9516 24.1339 7.01425C24.394 7.06436 24.5892 7.19591 24.7192 7.40889C24.8623 7.60934 24.9339 7.93508 24.9339 8.38611V17.6697C24.9339 18.2334 24.8948 18.6343 24.8168 18.8724C24.7387 19.123 24.5957 19.2796 24.3875 19.3422C24.1924 19.4174 23.9062 19.48 23.529 19.5301L23.2168 19.5677ZM27.3534 7.08942C27.7696 6.83885 28.2444 6.71356 28.7778 6.71356C29.3761 6.71356 29.8639 6.8827 30.2412 7.22096C30.6314 7.55923 30.9241 8.01652 31.1192 8.59283C31.3143 9.16913 31.4119 9.82061 31.4119 10.5473C31.4119 11.2614 31.3143 11.9066 31.1192 12.4829C30.9241 13.0467 30.6314 13.4977 30.2412 13.836C29.8509 14.1617 29.3566 14.3246 28.7583 14.3246C28.2249 14.3246 27.7371 14.193 27.2948 13.9299C26.8526 13.6668 26.5209 13.3724 26.2997 13.0467V7.97267C26.5989 7.62187 26.9501 7.32746 27.3534 7.08942ZM34.8783 14.6818C34.5938 14.9363 34.2787 15.0636 33.9332 15.0636C33.6487 15.0636 33.4251 14.9461 33.2625 14.7112C33.0999 14.4763 33.0186 14.1729 33.0186 13.8009C33.0186 13.4681 33.0897 13.1158 33.232 12.7438C33.3743 12.3719 33.5775 12.0195 33.8417 11.6868C34.1466 11.3148 34.5328 10.845 35.0003 10.2773C35.4678 9.70962 35.9759 9.11256 36.5247 8.48614C37.0938 7.85972 37.6629 7.28224 38.232 6.75369C38.0897 7.30181 37.9068 7.95759 37.6832 8.72104C37.4596 9.46492 37.2259 10.199 36.982 10.9233C36.7381 11.6476 36.5043 12.2447 36.2808 12.7145C36.1385 13.0277 35.9454 13.3703 35.7015 13.7422C35.4576 14.0946 35.1832 14.4078 34.8783 14.6818Z" fill="black"/>
</svg>
