<svg width="13" height="14" viewBox="0 0 13 14" fill="none" xmlns="http://www.w3.org/2000/svg">
<path id="Vector" d="M12.75 11.5H0.25V10.25H0.875V5.89437C0.875 2.77688 3.39375 0.25 6.5 0.25C9.60625 0.25 12.125 2.77688 12.125 5.89437V10.25H12.75V11.5ZM2.125 10.25H10.875V5.89437C10.875 3.4675 8.91625 1.5 6.5 1.5C4.08375 1.5 2.125 3.4675 2.125 5.89437V10.25ZM4.9375 12.125H8.0625C8.0625 12.5394 7.89788 12.9368 7.60485 13.2299C7.31183 13.5229 6.9144 13.6875 6.5 13.6875C6.0856 13.6875 5.68817 13.5229 5.39515 13.2299C5.10212 12.9368 4.9375 12.5394 4.9375 12.125Z" fill="#11152A"/>
</svg>
