<svg width="16" height="16" viewBox="0 0 16 16" fill="none" xmlns="http://www.w3.org/2000/svg">
<path fill-rule="evenodd" clip-rule="evenodd" d="M0.2479 14.0054C-0.0447338 14.2985 -0.0403666 14.7694 0.257654 15.0571C0.555676 15.3447 1.0345 15.3403 1.32713 15.0472L4.122 12.2473H14.6135V10.9544H13.9093V6.4494C13.9093 5.32583 13.5648 4.27644 12.9677 3.38595L14.8157 1.5347C15.1083 1.24155 15.1039 0.770699 14.8059 0.483025C14.5079 0.195351 14.0291 0.199792 13.7365 0.492944L11.9787 2.25386C10.8381 1.23707 9.28428 0.611392 7.57197 0.611392C4.07235 0.611392 1.23463 3.22495 1.23463 6.4494V10.9544H0.530486V12.2473H2.00286L0.2479 14.0054ZM5.4126 10.9544H12.501V6.4494C12.501 5.70765 12.3083 5.0074 11.9666 4.38888L5.4126 10.9544ZM11.0267 3.20752L3.29345 10.9544H2.64293V6.4494C2.64293 3.93927 4.84973 1.90427 7.57197 1.90427C8.91757 1.90427 10.1372 2.40148 11.0267 3.20752ZM8.81674 14.0365C9.14688 13.7334 9.33234 13.3224 9.33234 12.8938H5.8116C5.8116 13.3224 5.99707 13.7334 6.3272 14.0365C6.65733 14.3396 7.10509 14.5099 7.57197 14.5099C8.03885 14.5099 8.48661 14.3396 8.81674 14.0365Z" fill="white"/>
</svg>
