<svg width="16" height="15" viewBox="0 0 16 15" fill="none" xmlns="http://www.w3.org/2000/svg">
<path d="M14.6673 12.5H1.33398V11.25H2.00065V6.89438C2.00065 3.77688 4.68732 1.25 8.00065 1.25C11.314 1.25 14.0007 3.77688 14.0007 6.89438V11.25H14.6673V12.5ZM3.33398 11.25H12.6673V6.89438C12.6673 4.4675 10.578 2.5 8.00065 2.5C5.42332 2.5 3.33398 4.4675 3.33398 6.89438V11.25ZM6.33398 13.125H9.66732C9.66732 13.5394 9.49172 13.9368 9.17916 14.2299C8.8666 14.5229 8.44268 14.6875 8.00065 14.6875C7.55862 14.6875 7.1347 14.5229 6.82214 14.2299C6.50958 13.9368 6.33398 13.5394 6.33398 13.125V13.125Z" fill="white"/>
</svg>
