<svg width="24" height="23" viewBox="0 0 24 23" fill="none" xmlns="http://www.w3.org/2000/svg">
<path d="M23.8209 10.7996C22.8547 8.70433 21.4397 6.84714 19.6759 5.35962L22.7079 2.32762L21.2929 0.911621L17.9999 4.20162C16.1772 3.14734 14.1054 2.60072 11.9999 2.61862C4.49987 2.61862 1.05687 8.87962 0.178871 10.7996C0.0610095 11.0569 0 11.3366 0 11.6196C0 11.9026 0.0610095 12.1823 0.178871 12.4396C1.14501 14.5349 2.56009 16.3921 4.32387 17.8796L1.29287 20.9116L2.70687 22.3256L5.99987 19.0356C7.82251 20.0899 9.89436 20.6365 11.9999 20.6186C19.4999 20.6186 22.9429 14.3576 23.8209 12.4376C23.9385 12.1806 23.9994 11.9013 23.9994 11.6186C23.9994 11.336 23.9385 11.0566 23.8209 10.7996V10.7996ZM1.99987 11.6296C2.74987 9.98462 5.69287 4.61862 11.9999 4.61862C13.5695 4.60945 15.1185 4.97562 16.5179 5.68662L14.7529 7.45162C13.7928 6.81422 12.6418 6.52862 11.4951 6.64327C10.3484 6.75792 9.27674 7.26576 8.46187 8.08062C7.64701 8.89549 7.13917 9.96718 7.02452 11.1139C6.90987 12.2605 7.19547 13.4116 7.83287 14.3716L5.75387 16.4506C4.15425 15.148 2.87074 13.4997 1.99987 11.6296V11.6296ZM14.9999 11.6186C14.9999 12.4143 14.6838 13.1773 14.1212 13.7399C13.5586 14.3026 12.7955 14.6186 11.9999 14.6186C11.5544 14.6169 11.1151 14.5143 10.7149 14.3186L14.6999 10.3336C14.8956 10.7338 14.9981 11.1731 14.9999 11.6186V11.6186ZM8.99987 11.6186C8.99987 10.823 9.31594 10.0599 9.87855 9.4973C10.4412 8.93469 11.2042 8.61862 11.9999 8.61862C12.4454 8.62035 12.8847 8.72291 13.2849 8.91862L9.29987 12.9036C9.10416 12.5034 9.0016 12.0641 8.99987 11.6186ZM11.9999 18.6186C10.4303 18.6278 8.88123 18.2616 7.48187 17.5506L9.24687 15.7856C10.2069 16.423 11.358 16.7086 12.5046 16.594C13.6513 16.4793 14.723 15.9715 15.5379 15.1566C16.3527 14.3418 16.8606 13.2701 16.9752 12.1234C17.0899 10.9767 16.8043 9.82569 16.1669 8.86562L18.2449 6.78762C19.8476 8.09143 21.1319 9.74368 21.9999 11.6186C21.2359 13.2756 18.2919 18.6186 11.9999 18.6186Z" fill="#999"/>
</svg>
