<svg width="24" height="24" viewBox="0 0 24 24" fill="none" xmlns="http://www.w3.org/2000/svg">
<g clip-path="url(#clip0_887_4703)">
<path d="M23.8209 11.181C22.9429 9.261 19.4999 3 11.9999 3C4.49987 3 1.05687 9.261 0.178871 11.181C0.0610095 11.4383 0 11.718 0 12.001C0 12.284 0.0610095 12.5637 0.178871 12.821C1.05687 14.739 4.49987 21 11.9999 21C19.4999 21 22.9429 14.739 23.8209 12.819C23.9385 12.562 23.9994 12.2827 23.9994 12C23.9994 11.7173 23.9385 11.438 23.8209 11.181V11.181ZM11.9999 19C5.69287 19 2.74987 13.634 1.99987 12.011C2.74987 10.366 5.69287 5 11.9999 5C18.2919 5 21.2359 10.343 21.9999 12C21.2359 13.657 18.2919 19 11.9999 19Z" fill="#999"/>
<path d="M12 7.00037C11.0111 7.00037 10.0444 7.29361 9.22215 7.84302C8.39991 8.39243 7.75904 9.17332 7.3806 10.0869C7.00217 11.0006 6.90315 12.0059 7.09608 12.9758C7.289 13.9457 7.76521 14.8366 8.46447 15.5359C9.16373 16.2352 10.0546 16.7114 11.0246 16.9043C11.9945 17.0972 12.9998 16.9982 13.9134 16.6198C14.827 16.2413 15.6079 15.6005 16.1574 14.7782C16.7068 13.956 17 12.9893 17 12.0004C16.9984 10.6748 16.4711 9.40392 15.5338 8.46659C14.5964 7.52925 13.3256 7.00195 12 7.00037V7.00037ZM12 15.0004C11.4067 15.0004 10.8266 14.8244 10.3333 14.4948C9.83994 14.1651 9.45543 13.6966 9.22836 13.1484C9.0013 12.6002 8.94189 11.997 9.05765 11.4151C9.1734 10.8332 9.45912 10.2986 9.87868 9.87905C10.2982 9.45949 10.8328 9.17377 11.4147 9.05801C11.9967 8.94225 12.5999 9.00166 13.1481 9.22873C13.6962 9.45579 14.1648 9.84031 14.4944 10.3337C14.8241 10.827 15 11.407 15 12.0004C15 12.796 14.6839 13.5591 14.1213 14.1217C13.5587 14.6843 12.7957 15.0004 12 15.0004Z" fill="#999"/>
</g>
<defs>
<clipPath id="clip0_887_4703">
<rect width="24" height="24" fill="white"/>
</clipPath>
</defs>
</svg>
