<svg width="19" height="21" viewBox="0 0 19 21" fill="none" xmlns="http://www.w3.org/2000/svg">
<path d="M6.16406 9.27014H4.16406V11.2701H6.16406V9.27014ZM10.1641 9.27014H8.16406V11.2701H10.1641V9.27014ZM14.1641 9.27014H12.1641V11.2701H14.1641V9.27014ZM16.1641 2.27014H15.1641V0.270142H13.1641V2.27014H5.16406V0.270142H3.16406V2.27014H2.16406C1.05406 2.27014 0.174062 3.17014 0.174062 4.27014L0.164062 18.2701C0.164062 19.3701 1.05406 20.2701 2.16406 20.2701H16.1641C17.2641 20.2701 18.1641 19.3701 18.1641 18.2701V4.27014C18.1641 3.17014 17.2641 2.27014 16.1641 2.27014ZM16.1641 18.2701H2.16406V7.27014H16.1641V18.2701Z" fill="black"/>
</svg>
