<svg width="16" height="15" viewBox="0 0 16 15" fill="none" xmlns="http://www.w3.org/2000/svg">
<path d="M11.8017 10.3856L14.4861 13.0619L13.5992 13.9462L10.9154 11.2694C9.9168 12.0676 8.67471 12.5018 7.39484 12.5C4.28104 12.5 1.75391 9.98 1.75391 6.875C1.75391 3.77 4.28104 1.25 7.39484 1.25C10.5086 1.25 13.0358 3.77 13.0358 6.875C13.0376 8.15125 12.6022 9.38984 11.8017 10.3856ZM10.5444 9.92188C11.3398 9.10618 11.784 8.01277 11.7822 6.875C11.7822 4.4575 9.81856 2.5 7.39484 2.5C4.97049 2.5 3.00745 4.4575 3.00745 6.875C3.00745 9.29188 4.97049 11.25 7.39484 11.25C8.53583 11.2518 9.63234 10.8088 10.4503 10.0156L10.5444 9.92188V9.92188Z" fill="#674EFF"/>
</svg>
