<svg width="51" height="46" viewBox="0 0 51 46" fill="none" xmlns="http://www.w3.org/2000/svg">
<path fill-rule="evenodd" clip-rule="evenodd" d="M36.7924 18.8523C36.7924 29.2641 28.7293 37.7046 18.7829 37.7046C18.4861 37.7046 18.1909 37.697 17.8975 37.6822C15.9146 34.6532 14.7545 30.9875 14.7545 27.0381C14.7545 23.654 15.6063 20.4781 17.0977 17.7326L23.5988 18.7727L24.5883 25.5499L25.5777 18.7726L32.2896 17.6989L25.6405 16.6351L24.6978 10.1779C27.1243 8.90331 29.8641 8.18586 32.764 8.18586C33.0608 8.18586 33.356 8.19338 33.6493 8.20824C35.6323 11.2373 36.7924 14.9029 36.7924 18.8523ZM24.4597 10.3053C21.3989 11.9732 18.8533 14.5343 17.1381 17.6586L23.5356 16.6352L24.4597 10.3053ZM33.6493 8.20824C30.4046 3.25171 24.9565 0 18.7829 0C8.83656 0 0.773438 8.44045 0.773438 18.8523C0.773438 28.9533 8.36243 37.199 17.8975 37.6822C21.1423 42.6387 26.5904 45.8904 32.764 45.8904C42.7103 45.8904 50.7734 37.45 50.7734 27.0381C50.7734 16.9371 43.1844 8.69145 33.6493 8.20824Z" fill="url(#paint0_linear_235_3697)"/>
<defs>
<linearGradient id="paint0_linear_235_3697" x1="25.7734" y1="0" x2="25.7734" y2="45.8904" gradientUnits="userSpaceOnUse">
<stop stop-color="#7CF335"/>
<stop offset="1" stop-color="#674EFF"/>
</linearGradient>
</defs>
</svg>
