<svg width="14" height="13" viewBox="0 0 14 13" fill="none" xmlns="http://www.w3.org/2000/svg">
<path id="Vector" d="M10.9618 9.38563L13.6463 12.0619L12.7594 12.9462L10.0756 10.2694C9.07696 11.0676 7.83486 11.5018 6.555 11.5C3.4412 11.5 0.914062 8.98 0.914062 5.875C0.914062 2.77 3.4412 0.25 6.555 0.25C9.66879 0.25 12.1959 2.77 12.1959 5.875C12.1978 7.15125 11.7623 8.38984 10.9618 9.38563ZM9.70452 8.92188C10.5 8.10618 10.9442 7.01277 10.9424 5.875C10.9424 3.4575 8.97872 1.5 6.555 1.5C4.13065 1.5 2.1676 3.4575 2.1676 5.875C2.1676 8.29187 4.13065 10.25 6.555 10.25C7.69599 10.2518 8.7925 9.80882 9.6105 9.01562L9.70452 8.92188Z" fill="#674EFF"/>
</svg>
