<svg width="21" height="21" viewBox="0 0 21 21" fill="none" xmlns="http://www.w3.org/2000/svg">
<g clip-path="url(#clip0_235_3993)">
<path d="M1.36698 5.82747C1.08794 5.9072 0.834562 6.0584 0.631906 6.26612C0.429249 6.47384 0.284342 6.73088 0.211524 7.0118C0.138706 7.29272 0.1405 7.58778 0.216729 7.86779C0.292958 8.1478 0.440979 8.40306 0.646147 8.6083L3.48948 11.4483V16.9366H8.98365L11.8461 19.795C11.9998 19.9499 12.1825 20.073 12.3839 20.1571C12.5853 20.2412 12.8013 20.2846 13.0195 20.285C13.1629 20.2847 13.3057 20.2662 13.4445 20.23C13.7253 20.1592 13.9825 20.0158 14.1902 19.814C14.398 19.6123 14.5489 19.3594 14.6278 19.0808L20.1561 0.287476L1.36698 5.82747ZM1.83031 7.42997L16.0203 3.24664L5.15781 14.0916V10.7583L1.83031 7.42997ZM13.0303 18.6166L9.67448 15.27H6.34115L17.202 4.4183L13.0303 18.6166Z" fill="white"/>
</g>
<defs>
<clipPath id="clip0_235_3993">
<rect width="20" height="20" fill="white" transform="translate(0.164062 0.270142)"/>
</clipPath>
</defs>
</svg>
