<svg width="51" height="40" viewBox="0 0 51 40" fill="none" xmlns="http://www.w3.org/2000/svg">
<path fill-rule="evenodd" clip-rule="evenodd" d="M35.7734 25H30.7734V10H25.7734V5H30.7734L40.7734 5V10H35.7734V25ZM45.7734 15V10H40.7734V15H45.7734ZM45.7734 30H50.7734V15H45.7734V30ZM40.7734 35H45.7734V30H40.7734V35ZM25.7734 35L25.7734 40H40.7734V35H25.7734ZM10.7734 30V35H20.7734H25.7734V30H30.7734V25H25.7734V30H20.7734V15H25.3307L25.1198 16.5772L22.0996 17.1047L25.1474 17.637L25.5972 21L26.0468 17.638L29.0996 17.1048L26.0765 16.5768L25.7734 14.3108L25.7734 10H20.7734V15H15.7734V30H10.7734ZM5.77344 25V30H10.7734V25H5.77344ZM5.77344 10H0.773438V25H5.77344V10ZM10.7734 5V0H25.7734V5H10.7734ZM10.7734 5H5.77344V10H10.7734V5Z" fill="black"/>
</svg>
