<svg width="29" height="32" viewBox="0 0 29 32" fill="none" xmlns="http://www.w3.org/2000/svg">
<path d="M24.4251 18.1754V18.2373L24.4688 18.2812L27.271 21.099C27.2711 21.0991 27.2712 21.0992 27.2713 21.0992C27.6025 21.4361 27.8272 21.8631 27.9171 22.327C28.0071 22.7909 27.9583 23.271 27.7769 23.7074C27.5955 24.1438 27.2894 24.517 26.8971 24.7803C26.5048 25.0437 26.0436 25.1856 25.5712 25.1883C25.5711 25.1883 25.571 25.1883 25.5709 25.1883L20.3397 25.1883H20.1897V25.3383V25.8642C20.1179 27.4041 19.4391 28.8529 18.3018 29.8936C17.1635 30.9351 15.6589 31.4829 14.1175 31.417L14.1175 31.4165L14.1047 31.417C12.5633 31.4829 11.0586 30.9351 9.92041 29.8936C8.78304 28.8529 8.10425 27.4041 8.03249 25.8642V25.3383V25.1883H7.88249L2.65132 25.1883C2.6512 25.1883 2.65109 25.1883 2.65098 25.1883C2.17854 25.1856 1.71736 25.0437 1.32509 24.7803C0.932729 24.517 0.626706 24.1438 0.445282 23.7074C0.263857 23.271 0.21508 22.7909 0.305049 22.327C0.394999 21.8631 0.619648 21.4361 0.950921 21.0992C0.950988 21.0991 0.951055 21.0991 0.951122 21.099L3.75341 18.2812L3.79705 18.2373V18.1754L3.79705 10.9038C3.79973 9.43276 4.11611 7.97922 4.72506 6.64015C5.33401 5.30108 6.22153 4.10728 7.32841 3.13839C8.4353 2.16951 9.73608 1.44783 11.144 1.02149C12.5514 0.595313 14.0334 0.47407 15.4914 0.665842C18.0044 1.05139 20.2931 2.33296 21.9351 4.27403C23.5774 6.21551 24.4619 8.68565 24.4251 11.2283H24.4251V11.2305V18.1754ZM17.3744 25.8849L17.3754 25.8763V25.8677V25.3383V25.1883H17.2254H10.9968H10.8468V25.3383V25.8677V25.8763L10.8478 25.8849C10.9386 26.6722 11.3296 27.3942 11.9395 27.9004C12.5467 28.4044 13.3241 28.6558 14.1111 28.6029C14.8981 28.6558 15.6755 28.4044 16.2827 27.9004C16.8925 27.3942 17.2836 26.6722 17.3744 25.8849ZM3.89913 22.1179L3.64306 22.374H4.00519H24.217H24.5813L24.3226 22.1175L22.4705 20.2809C22.4703 20.2807 22.4701 20.2805 22.4699 20.2804C22.1954 20.0035 21.9783 19.6752 21.8309 19.3143C21.6833 18.9531 21.6086 18.5664 21.6108 18.1763V18.1754V11.1699C21.6498 9.31026 21.0159 7.49912 19.8257 6.06972C18.6352 4.63992 16.9682 3.68833 15.1317 3.39014L15.1317 3.39007L15.1271 3.38946C14.0608 3.2503 12.977 3.34451 11.9507 3.66557C10.9248 3.98649 9.98092 4.5264 9.18425 5.24796C8.37716 5.95254 7.73004 6.82154 7.28628 7.79671C6.84234 8.77229 6.61221 9.83154 6.61135 10.9034V10.9035L6.61134 18.1754L6.61135 18.1755C6.61166 18.5667 6.53455 18.954 6.38446 19.3152C6.23438 19.6765 6.01429 20.0044 5.73688 20.2802L5.73656 20.2805L3.89913 22.1179Z" fill="#1A1A1A" stroke="#FEFEFE" stroke-width="0.3"/>
</svg>
