<svg width="28" height="32" viewBox="0 0 28 32" fill="none" xmlns="http://www.w3.org/2000/svg">
<path d="M24.314 17.7479V17.8098L24.3577 17.8537L27.16 20.6715C27.16 20.6716 27.1601 20.6717 27.1602 20.6717C27.4914 21.0086 27.7161 21.4357 27.806 21.8995C27.896 22.3634 27.8472 22.8436 27.6658 23.2799C27.4844 23.7163 27.1784 24.0895 26.786 24.3529C26.3937 24.6162 25.9325 24.7581 25.4601 24.7608C25.46 24.7608 25.4599 24.7608 25.4598 24.7608L20.2286 24.7608H20.0786V24.9108V25.4367C20.0068 26.9766 19.328 28.4255 18.1907 29.4662C17.0524 30.5076 15.5478 31.0554 14.0064 30.9895L14.0064 30.989L13.9936 30.9895C12.4522 31.0554 10.9476 30.5076 9.80933 29.4662C8.67195 28.4255 7.99316 26.9766 7.92141 25.4367V24.9108V24.7608H7.77141L2.54023 24.7608C2.54012 24.7608 2.54001 24.7608 2.5399 24.7608C2.06745 24.7581 1.60628 24.6162 1.21401 24.3529C0.821645 24.0895 0.515622 23.7163 0.334198 23.2799C0.152773 22.8436 0.103996 22.3634 0.193965 21.8995C0.283915 21.4356 0.508564 21.0086 0.839837 20.6717C0.839904 20.6717 0.839971 20.6716 0.840038 20.6715L3.64232 17.8537L3.68597 17.8098V17.7479L3.68596 10.4763C3.68865 9.00527 4.00502 7.55173 4.61397 6.21266C5.22292 4.87359 6.11045 3.67979 7.21733 2.7109C8.32421 1.74202 9.625 1.02033 11.0329 0.594002C12.4403 0.167822 13.9223 0.0465801 15.3803 0.238352C17.8933 0.623902 20.182 1.90547 21.824 3.84654C23.4664 5.78802 24.3508 8.25815 24.314 10.8009H24.314V10.803V17.7479ZM17.2633 25.4574L17.2643 25.4488V25.4402V24.9108V24.7608H17.1143H10.8857H10.7357V24.9108V25.4402V25.4488L10.7367 25.4574C10.8275 26.2448 11.2185 26.9667 11.8284 27.4729C12.4356 27.9769 13.213 28.2283 14 28.1754C14.787 28.2283 15.5644 27.9769 16.1716 27.4729C16.7815 26.9667 17.1725 26.2448 17.2633 25.4574ZM3.78804 21.6904L3.53198 21.9465H3.89411H24.1059H24.4702L24.2115 21.69L22.3594 19.8534C22.3592 19.8532 22.359 19.853 22.3588 19.8529C22.0844 19.576 21.8672 19.2477 21.7198 18.8868C21.5723 18.5256 21.4975 18.1389 21.4997 17.7488V17.7479V10.7424C21.5387 8.88277 20.9048 7.07163 19.7146 5.64223C18.5241 4.21243 16.8571 3.26084 15.0206 2.96265L15.0206 2.96258L15.016 2.96197C13.9497 2.82281 12.8659 2.91702 11.8396 3.23808C10.8137 3.559 9.86984 4.09891 9.07317 4.82047C8.26608 5.52505 7.61895 6.39405 7.1752 7.36922C6.73125 8.3448 6.50113 9.40405 6.50026 10.4759V10.476L6.50026 17.7479L6.50026 17.748C6.50057 18.1392 6.42346 18.5265 6.27338 18.8877C6.12329 19.249 5.9032 19.5769 5.62579 19.8527L5.62548 19.853L3.78804 21.6904Z" fill="#91C788" stroke="#FEFEFE" stroke-width="0.3"/>
</svg>
