<svg width="29" height="33" viewBox="0 0 29 33" fill="none" xmlns="http://www.w3.org/2000/svg">
<path d="M24.4251 18.6754V18.7373L24.4688 18.7812L27.271 21.599C27.2711 21.5991 27.2712 21.5992 27.2713 21.5992C27.6025 21.9361 27.8272 22.3631 27.9171 22.827C28.0071 23.2909 27.9583 23.771 27.7769 24.2074C27.5955 24.6438 27.2894 25.017 26.8971 25.2803C26.5048 25.5437 26.0436 25.6856 25.5712 25.6883C25.5711 25.6883 25.571 25.6883 25.5709 25.6883L20.3397 25.6883H20.1897V25.8383V26.3642C20.1179 27.9041 19.4391 29.3529 18.3018 30.3936C17.1635 31.4351 15.6589 31.9829 14.1175 31.917L14.1175 31.9165L14.1047 31.917C12.5633 31.9829 11.0586 31.4351 9.92041 30.3936C8.78304 29.3529 8.10425 27.9041 8.03249 26.3642V25.8383V25.6883H7.88249L2.65132 25.6883C2.6512 25.6883 2.65109 25.6883 2.65098 25.6883C2.17854 25.6856 1.71736 25.5437 1.32509 25.2803C0.932729 25.017 0.626706 24.6438 0.445282 24.2074C0.263857 23.771 0.21508 23.2909 0.305049 22.827C0.394999 22.3631 0.619648 21.9361 0.950921 21.5992C0.950988 21.5991 0.951055 21.5991 0.951122 21.599L3.75341 18.7812L3.79705 18.7373V18.6754L3.79705 11.4038C3.79973 9.93276 4.11611 8.47922 4.72506 7.14015C5.33401 5.80108 6.22153 4.60728 7.32841 3.63839C8.4353 2.66951 9.73608 1.94783 11.144 1.52149C12.5514 1.09531 14.0334 0.97407 15.4914 1.16584C18.0044 1.55139 20.2931 2.83296 21.9351 4.77403C23.5774 6.71551 24.4619 9.18565 24.4251 11.7283H24.4251V11.7305V18.6754ZM17.3744 26.3849L17.3754 26.3763V26.3677V25.8383V25.6883H17.2254H10.9968H10.8468V25.8383V26.3677V26.3763L10.8478 26.3849C10.9386 27.1722 11.3296 27.8942 11.9395 28.4004C12.5467 28.9044 13.3241 29.1558 14.1111 29.1029C14.8981 29.1558 15.6755 28.9044 16.2827 28.4004C16.8925 27.8942 17.2836 27.1722 17.3744 26.3849ZM3.89913 22.6179L3.64306 22.874H4.00519H24.217H24.5813L24.3226 22.6175L22.4705 20.7809C22.4703 20.7807 22.4701 20.7805 22.4699 20.7804C22.1954 20.5035 21.9783 20.1752 21.8309 19.8143C21.6833 19.4531 21.6086 19.0664 21.6108 18.6763V18.6754V11.6699C21.6498 9.81026 21.0159 7.99912 19.8257 6.56972C18.6352 5.13992 16.9682 4.18833 15.1317 3.89014L15.1317 3.89007L15.1271 3.88946C14.0608 3.7503 12.977 3.84451 11.9507 4.16557C10.9248 4.48649 9.98092 5.0264 9.18425 5.74796C8.37716 6.45254 7.73004 7.32154 7.28628 8.29671C6.84234 9.27229 6.61221 10.3315 6.61135 11.4034V11.4035L6.61134 18.6754L6.61135 18.6755C6.61166 19.0667 6.53455 19.454 6.38446 19.8152C6.23438 20.1765 6.01429 20.5044 5.73688 20.7802L5.73656 20.7805L3.89913 22.6179Z" fill="#FEFEFE" stroke="#1A1A1A" stroke-width="0.3"/>
</svg>
