<svg width="50" height="50" viewBox="0 0 50 50" fill="none" xmlns="http://www.w3.org/2000/svg">
<circle cx="25" cy="25" r="24.5" fill="#FEFEFE" stroke="#4D4D4D"/>
<path d="M19.4625 15.75H19.5726L19.6469 15.6688L21.8601 13.25H29.1399L31.3531 15.6688L31.4274 15.75H31.5375H35.5C36.7369 15.75 37.75 16.7631 37.75 18V33C37.75 34.2369 36.7369 35.25 35.5 35.25H15.5C14.2631 35.25 13.25 34.2369 13.25 33V18C13.25 16.7631 14.2631 15.75 15.5 15.75H19.4625ZM19 25.5C19 29.0881 21.9119 32 25.5 32C29.0881 32 32 29.0881 32 25.5C32 21.9119 29.0881 19 25.5 19C21.9119 19 19 21.9119 19 25.5ZM29.1875 25.4375C29.1875 27.5085 27.5085 29.1875 25.4375 29.1875C23.3664 29.1875 21.6875 27.5085 21.6875 25.4375C21.6875 23.3664 23.3664 21.6875 25.4375 21.6875C27.5085 21.6875 29.1875 23.3664 29.1875 25.4375Z" fill="#4D4D4D" stroke="#FEFEFE" stroke-width="0.5"/>
</svg>
