<svg width="24" height="24" viewBox="0 0 24 24" fill="none" xmlns="http://www.w3.org/2000/svg">
<path fill-rule="evenodd" clip-rule="evenodd" d="M0.899522 0.313712C1.29005 -0.076812 1.92321 -0.076812 2.31374 0.313712L23.5269 21.5269C23.9175 21.9174 23.9175 22.5506 23.5269 22.9411C23.1364 23.3317 22.5032 23.3317 22.1127 22.9411L0.899522 1.72793C0.508997 1.3374 0.508997 0.704237 0.899522 0.313712Z" fill="#1A1A1A"/>
<path fill-rule="evenodd" clip-rule="evenodd" d="M0.899523 22.9411C0.508999 22.5506 0.508999 21.9174 0.899523 21.5269L22.1127 0.313704C22.5032 -0.0768202 23.1364 -0.0768206 23.5269 0.313704C23.9175 0.704228 23.9175 1.33739 23.5269 1.72792L2.31374 22.9411C1.92321 23.3316 1.29005 23.3316 0.899523 22.9411Z" fill="#1A1A1A"/>
</svg>
