<svg width="30" height="30" viewBox="0 0 30 30" fill="none" xmlns="http://www.w3.org/2000/svg">
<path fill-rule="evenodd" clip-rule="evenodd" d="M28.125 26.25C28.125 27.2813 27.285 28.125 26.25 28.125H3.75C2.715 28.125 1.875 27.2813 1.875 26.25V3.75C1.875 2.71875 2.715 1.875 3.75 1.875H26.25C27.285 1.875 28.125 2.71875 28.125 3.75V26.25ZM26.25 0H3.75C1.67906 0 0 1.67812 0 3.75V26.25C0 28.3219 1.67906 30 3.75 30H26.25C28.3209 30 30 28.3219 30 26.25V3.75C30 1.67812 28.3209 0 26.25 0ZM20.625 14.0625H15.9375V9.375C15.9375 8.85937 15.5175 8.4375 15 8.4375C14.4825 8.4375 14.0625 8.85937 14.0625 9.375V14.0625H9.375C8.8575 14.0625 8.4375 14.4844 8.4375 15C8.4375 15.5156 8.8575 15.9375 9.375 15.9375H14.0625V20.625C14.0625 21.1406 14.4825 21.5625 15 21.5625C15.5175 21.5625 15.9375 21.1406 15.9375 20.625V15.9375H20.625C21.1425 15.9375 21.5625 15.5156 21.5625 15C21.5625 14.4844 21.1425 14.0625 20.625 14.0625Z" fill="#91C788"/>
</svg>
