<svg width="14" height="14" viewBox="0 0 14 14" fill="none" xmlns="http://www.w3.org/2000/svg">
<path d="M13.8401 8.3845C13.7697 8.31391 13.6814 8.26384 13.5846 8.23966C13.4879 8.21547 13.3864 8.21809 13.291 8.24722C12.244 8.56375 11.1307 8.59029 10.0698 8.32401C9.00885 8.05773 8.04004 7.5086 7.26658 6.73515C6.49313 5.96169 5.944 4.99288 5.67772 3.93195C5.41144 2.87103 5.43798 1.75773 5.75451 0.710701C5.78389 0.615295 5.7867 0.513685 5.76265 0.416799C5.7386 0.319914 5.68858 0.231418 5.618 0.16083C5.54741 0.0902421 5.45891 0.040232 5.36203 0.0161785C5.26514 -0.00787504 5.16353 -0.00506196 5.06813 0.0243152C3.62056 0.467751 2.34972 1.35645 1.43646 2.56394C0.637789 3.62431 0.15062 4.88638 0.0296862 6.20836C-0.0912479 7.53034 0.158843 8.85985 0.751863 10.0475C1.34488 11.2352 2.25734 12.234 3.38671 12.9317C4.51608 13.6294 5.81763 13.9983 7.14513 13.9971C8.69385 14.0018 10.2014 13.4984 11.4364 12.5639C12.6439 11.6506 13.5326 10.3798 13.976 8.93223C14.0051 8.83718 14.0078 8.73603 13.9838 8.63957C13.9599 8.54311 13.9102 8.45495 13.8401 8.3845ZM10.7761 11.6867C9.61306 12.5627 8.17271 12.9891 6.72022 12.8874C5.26773 12.7857 3.90086 12.1627 2.87124 11.1332C1.84161 10.1037 1.21854 8.73684 1.11672 7.28435C1.0149 5.83187 1.44118 4.39149 2.31709 3.22836C2.88776 2.47475 3.62553 1.86386 4.47234 1.44376C4.4241 1.7823 4.39979 2.12383 4.39959 2.46579C4.40158 4.3584 5.15431 6.17292 6.49259 7.5112C7.83087 8.84948 9.64539 9.60221 11.538 9.6042C11.8806 9.6041 12.2229 9.57978 12.5621 9.53145C12.1416 10.3784 11.5302 11.1162 10.7761 11.6867Z" fill="#4D4D4D"/>
</svg>
