<svg width="30" height="30" viewBox="0 0 30 30" fill="none" xmlns="http://www.w3.org/2000/svg">
<path d="M15 17.1875C16.2081 17.1875 17.1875 16.2081 17.1875 15C17.1875 13.7919 16.2081 12.8125 15 12.8125C13.7919 12.8125 12.8125 13.7919 12.8125 15C12.8125 16.2081 13.7919 17.1875 15 17.1875Z" fill="#808080"/>
<path d="M23.75 17.1875C24.9581 17.1875 25.9375 16.2081 25.9375 15C25.9375 13.7919 24.9581 12.8125 23.75 12.8125C22.5419 12.8125 21.5625 13.7919 21.5625 15C21.5625 16.2081 22.5419 17.1875 23.75 17.1875Z" fill="#808080"/>
<path d="M6.25 17.1875C7.45812 17.1875 8.4375 16.2081 8.4375 15C8.4375 13.7919 7.45812 12.8125 6.25 12.8125C5.04188 12.8125 4.0625 13.7919 4.0625 15C4.0625 16.2081 5.04188 17.1875 6.25 17.1875Z" fill="#808080"/>
</svg>
