<svg width="25" height="25" viewBox="0 0 25 25" fill="none" xmlns="http://www.w3.org/2000/svg">
<path d="M18.6568 18.3512C16.9474 19.6542 14.8659 20.376 12.7168 20.4112C5.7168 20.4112 1.7168 12.4112 1.7168 12.4112C2.96069 10.0931 4.68593 8.06777 6.7768 6.47116M10.6168 4.65116C11.3051 4.49004 12.0099 4.4095 12.7168 4.41116C19.7168 4.41116 23.7168 12.4112 23.7168 12.4112C23.1098 13.5468 22.3859 14.6159 21.5568 15.6012M14.8368 14.5312C14.5621 14.8259 14.2309 15.0623 13.8629 15.2263C13.495 15.3902 13.0977 15.4784 12.6949 15.4855C12.2921 15.4926 11.892 15.4185 11.5184 15.2676C11.1449 15.1168 10.8055 14.8922 10.5206 14.6073C10.2358 14.3224 10.0112 13.9831 9.86031 13.6095C9.70942 13.236 9.63532 12.8359 9.64243 12.4331C9.64954 12.0303 9.73771 11.633 9.90167 11.265C10.0656 10.897 10.302 10.5658 10.5968 10.2912" stroke="black" stroke-width="2" stroke-linecap="round" stroke-linejoin="round"/>
<path d="M1.7168 1.41113L23.7168 23.4111" stroke="black" stroke-width="2" stroke-linecap="round" stroke-linejoin="round"/>
</svg>
