<svg width="21" height="18" viewBox="0 0 21 18" fill="none" xmlns="http://www.w3.org/2000/svg">
<path d="M15.1875 0C13.2516 0 11.5566 0.8325 10.5 2.23969C9.44344 0.8325 7.74844 0 5.8125 0C4.27146 0.00173694 2.79404 0.614681 1.70436 1.70436C0.614681 2.79404 0.00173694 4.27146 0 5.8125C0 12.375 9.73031 17.6869 10.1447 17.9062C10.2539 17.965 10.376 17.9958 10.5 17.9958C10.624 17.9958 10.7461 17.965 10.8553 17.9062C11.2697 17.6869 21 12.375 21 5.8125C20.9983 4.27146 20.3853 2.79404 19.2956 1.70436C18.206 0.614681 16.7285 0.00173694 15.1875 0ZM10.5 16.3875C8.78813 15.39 1.5 10.8459 1.5 5.8125C1.50149 4.66921 1.95632 3.57317 2.76475 2.76475C3.57317 1.95632 4.66921 1.50149 5.8125 1.5C7.63594 1.5 9.16687 2.47125 9.80625 4.03125C9.86275 4.16881 9.95888 4.28646 10.0824 4.36926C10.2059 4.45207 10.3513 4.49627 10.5 4.49627C10.6487 4.49627 10.7941 4.45207 10.9176 4.36926C11.0411 4.28646 11.1372 4.16881 11.1937 4.03125C11.8331 2.46844 13.3641 1.5 15.1875 1.5C16.3308 1.50149 17.4268 1.95632 18.2353 2.76475C19.0437 3.57317 19.4985 4.66921 19.5 5.8125C19.5 10.8384 12.21 15.3891 10.5 16.3875Z" fill="#FF3333"/>
<path d="M11 6.5C11 9.53757 8.76142 12 6 12C3.23858 12 1 9.53757 1 6.5C1 3.46243 3.23858 1 6 1C8.76142 1 11 3.46243 11 6.5Z" fill="#FF3333"/>
<path d="M20 6.5C20 9.53757 17.7614 12 15 12C12.2386 12 10 9.53757 10 6.5C10 3.46243 12.2386 1 15 1C17.7614 1 20 3.46243 20 6.5Z" fill="#FF3333"/>
<path d="M10.5 17L2.27276 8.75L18.7272 8.75L10.5 17Z" fill="#FF3333"/>
<path d="M17 12.5C17 13.8807 14.0899 15 10.5 15C6.91015 15 4 13.8807 4 12.5C4 11.1193 6.91015 10 10.5 10C14.0899 10 17 11.1193 17 12.5Z" fill="#FF3333"/>
<path d="M10 15C10 15.5523 9.32843 16 8.5 16C7.67157 16 7 15.5523 7 15C7 14.4477 7.67157 14 8.5 14C9.32843 14 10 14.4477 10 15Z" fill="#FF3333"/>
<path d="M14 15C14 15.5523 13.3284 16 12.5 16C11.6716 16 11 15.5523 11 15C11 14.4477 11.6716 14 12.5 14C13.3284 14 14 14.4477 14 15Z" fill="#FF3333"/>
</svg>
