<svg width="188" height="58" viewBox="0 0 188 58" fill="none" xmlns="http://www.w3.org/2000/svg">
<path d="M12.8906 39.4531C12.0365 39.4531 11.3073 39.3906 10.7031 39.2656C10.099 39.1406 9.53646 38.9375 9.01562 38.6562C8.50521 38.375 7.95833 38.0104 7.375 37.5625L6.82812 39H1.78125V31.3906H6.79688C7.11979 32.2656 7.61458 32.8854 8.28125 33.25C8.95833 33.6042 9.78646 33.7812 10.7656 33.7812C11.3698 33.7812 11.8854 33.6615 12.3125 33.4219C12.7396 33.1719 12.9531 32.8438 12.9531 32.4375C12.9531 31.9271 12.7344 31.5469 12.2969 31.2969C11.8594 31.0365 11.2448 30.7969 10.4531 30.5781C9.44271 30.3073 8.52604 30.0208 7.70312 29.7188C6.89062 29.4167 6.16146 29.1042 5.51562 28.7812C4.22396 28.1354 3.18229 27.2188 2.39062 26.0312C1.59896 24.8438 1.20312 23.2656 1.20312 21.2969C1.20312 19.7865 1.53125 18.4531 2.1875 17.2969C2.83333 16.151 3.76042 15.2604 4.96875 14.625C6.1875 13.9792 7.61979 13.6562 9.26562 13.6562C11.276 13.6562 12.8646 14.2969 14.0312 15.5781L14.8281 14.1094H19.3125V21.5625H14.5156C14.0677 20.625 13.5729 19.974 13.0312 19.6094C12.4896 19.2448 11.7448 19.0625 10.7969 19.0625C10.0781 19.0625 9.52083 19.1927 9.125 19.4531C8.72917 19.7031 8.53125 20.0521 8.53125 20.5C8.53125 21 8.81771 21.3802 9.39062 21.6406C9.95312 21.9115 10.7552 22.1615 11.7969 22.3906C13.6198 22.8073 15.1927 23.3333 16.5156 23.9688C17.8073 24.6042 18.8385 25.5052 19.6094 26.6719C20.3906 27.8281 20.7812 29.3229 20.7812 31.1562C20.7812 32.7083 20.4583 34.1146 19.8125 35.375C19.1562 36.6354 18.224 37.6302 17.0156 38.3594C15.8177 39.0885 14.4427 39.4531 12.8906 39.4531ZM36.6719 39H23.2344V33.4062H25.6719V19.6406H23.2969V14.1094H36.6094C38.651 14.1094 40.4583 14.3333 42.0312 14.7812C43.6146 15.2188 44.8542 15.9583 45.75 17C46.6562 18.0417 47.1094 19.474 47.1094 21.2969C47.1094 24.4844 46.2448 26.776 44.5156 28.1719C42.7865 29.5677 40.1927 30.2656 36.7344 30.2656C35.849 30.2656 35.0729 30.2135 34.4062 30.1094V33.4062H36.6719V39ZM34.4375 19.6406V25.1719H35.0781C37.4427 25.1719 38.625 24.1302 38.625 22.0469C38.625 21.276 38.3646 20.6823 37.8438 20.2656C37.3229 19.849 36.625 19.6406 35.75 19.6406H34.4375ZM63.25 39H50.2656V33.5H52.7656V19.6406H50.2656V14.1406H66.2344C68.8177 14.1406 70.7135 14.6615 71.9219 15.7031C73.1406 16.7448 73.75 18.474 73.75 20.8906C73.75 22.5052 73.2969 23.75 72.3906 24.625C71.4844 25.5 70.1979 26.0885 68.5312 26.3906C70.0312 26.6302 71.1094 27.1927 71.7656 28.0781C72.4323 28.9635 72.7656 30.0677 72.7656 31.3906V33.4062H76.25V39H71.2188C70.1458 39 69.2812 38.9635 68.625 38.8906C67.9688 38.8073 67.4479 38.6198 67.0625 38.3281C66.6875 38.026 66.375 37.5573 66.125 36.9219C65.75 35.9635 65.5625 34.3646 65.5625 32.125C65.5625 30.8438 65.3542 29.8958 64.9375 29.2812C64.5208 28.6562 63.7604 28.3438 62.6562 28.3438H60.7656V33.5H63.25V39ZM60.7656 19.6406V24.7969H62.9062C64.0417 24.7969 64.8854 24.5938 65.4375 24.1875C65.9896 23.7812 66.2656 23.0677 66.2656 22.0469C66.2656 21.2969 65.9792 20.7083 65.4062 20.2812C64.8438 19.8542 64.1146 19.6406 63.2188 19.6406H60.7656ZM88.9062 39.4531C86.3125 39.4531 84.0677 38.8958 82.1719 37.7812C80.2865 36.6667 78.849 35.1354 77.8594 33.1875C76.8802 31.2396 76.3906 29.0156 76.3906 26.5156C76.3906 23.9219 76.8802 21.6615 77.8594 19.7344C78.8385 17.7969 80.2656 16.3021 82.1406 15.25C84.026 14.1875 86.2812 13.6562 88.9062 13.6562C91.5208 13.6562 93.7708 14.1823 95.6562 15.2344C97.5312 16.2969 98.9583 17.7969 99.9375 19.7344C100.927 21.6719 101.422 23.9323 101.422 26.5156C101.422 29.0156 100.932 31.2396 99.9531 33.1875C98.974 35.1354 97.5365 36.6667 95.6406 37.7812C93.7552 38.8958 91.5104 39.4531 88.9062 39.4531ZM88.9062 33.9062C90.0312 33.9062 90.8906 33.224 91.4844 31.8594C92.0885 30.4948 92.3906 28.6719 92.3906 26.3906C92.3906 24.1719 92.099 22.4167 91.5156 21.125C90.9427 19.8333 90.0729 19.1875 88.9062 19.1875C87.7292 19.1875 86.8542 19.8333 86.2812 21.125C85.7083 22.4167 85.4219 24.1719 85.4219 26.3906C85.4219 28.6719 85.7188 30.4948 86.3125 31.8594C86.9062 33.224 87.7708 33.9062 88.9062 33.9062ZM116.828 39.4531C113.12 39.4531 110.448 38.4844 108.812 36.5469C107.188 34.599 106.375 31.7448 106.375 27.9844V19.6406H103.844V14.1406H117.406V19.6406H115.109V30.1094C115.109 31.1302 115.359 31.9688 115.859 32.625C116.359 33.2708 117.146 33.5938 118.219 33.5938C119.115 33.5938 119.823 33.3281 120.344 32.7969C120.865 32.2552 121.125 31.526 121.125 30.6094V19.6406H118.562V14.1406H128.766V19.6406H126.375V30.3906C126.375 32.3802 125.974 34.0521 125.172 35.4062C124.38 36.75 123.271 37.7604 121.844 38.4375C120.417 39.1146 118.745 39.4531 116.828 39.4531ZM149.266 33.375V39H135.344V33.375H137.906V19.6406H135.703L135.031 23.9219H130.641V14.1406H154.031V23.9219H149.656L148.984 19.6406H146.703V33.375H149.266Z" fill="#91C788"/>
<ellipse cx="168.477" cy="24.8859" rx="7.06522" ry="2.71739" transform="rotate(30 168.477 24.8859)" fill="#91C788"/>
<ellipse cx="180.456" cy="24.9783" rx="7.06522" ry="2.71739" transform="rotate(-30 180.456 24.9783)" fill="#91C788"/>
<rect x="174.043" y="28.1305" width="1.73913" height="10.8696" fill="#91C788"/>
</svg>
