<svg width="25" height="26" viewBox="0 0 25 26" fill="none" xmlns="http://www.w3.org/2000/svg">
<path d="M24.4773 1.02261C24.2527 0.798208 23.9724 0.637722 23.6652 0.557685C23.358 0.477648 23.035 0.480953 22.7295 0.56726H22.7128L1.29119 7.06718C0.943418 7.1674 0.634314 7.37094 0.404835 7.65081C0.175357 7.93068 0.0363387 8.27368 0.00620245 8.63434C-0.0239338 8.99501 0.056235 9.35632 0.236085 9.67039C0.415935 9.98447 0.686975 10.2365 1.01329 10.393L10.4908 15.009L15.1002 24.481C15.2435 24.787 15.4715 25.0455 15.757 25.226C16.0426 25.4066 16.3739 25.5017 16.7118 25.5C16.7631 25.5 16.8144 25.4977 16.8658 25.4933C17.2261 25.4641 17.569 25.3254 17.8483 25.0958C18.1275 24.8662 18.3299 24.5566 18.4282 24.2087L24.9237 2.7871C24.9237 2.78152 24.9237 2.77594 24.9237 2.77036C25.0111 2.46563 25.0159 2.14313 24.9374 1.83597C24.8589 1.52881 24.7001 1.24808 24.4773 1.02261ZM16.7218 23.6975L16.7162 23.7132V23.7054L12.2453 14.5202L17.6024 9.16313C17.7627 8.99433 17.8508 8.76955 17.8478 8.53673C17.8449 8.30391 17.751 8.08147 17.5864 7.91683C17.4218 7.75219 17.1993 7.65837 16.9665 7.65539C16.7337 7.65241 16.5089 7.7405 16.3401 7.90087L10.983 13.2579L1.79453 8.78702H1.78672H1.80234L23.2139 2.28599L16.7218 23.6975Z" fill="#4D4D4D"/>
</svg>
