<svg width="32" height="26" viewBox="0 0 32 26" fill="none" xmlns="http://www.w3.org/2000/svg">
<path d="M25.6657 3.82496L26.2653 3.375H25.5156H5.73438H4.98469L5.58432 3.82496L15.4749 11.2468L15.625 11.3594L15.7751 11.2468L25.6657 3.82496ZM3.275 5.37813L2.875 5.07812V5.57812V20.8125C2.875 21.2932 3.06596 21.7542 3.40587 22.0941C3.74578 22.434 4.2068 22.625 4.6875 22.625H26.5625C27.0432 22.625 27.5042 22.434 27.8441 22.0941C28.184 21.7542 28.375 21.2932 28.375 20.8125V5.57812V5.07812L27.975 5.37813L16.4125 14.05C16.1853 14.2204 15.909 14.3125 15.625 14.3125C15.341 14.3125 15.0647 14.2204 14.8375 14.05L3.275 5.37813ZM4.6875 0.75H26.5625C27.7394 0.75 28.8681 1.21752 29.7003 2.04971C30.5325 2.88191 31 4.0106 31 5.1875V20.8125C31 21.9894 30.5325 23.1181 29.7003 23.9503C28.8681 24.7825 27.7394 25.25 26.5625 25.25H4.6875C3.5106 25.25 2.38191 24.7825 1.54971 23.9503C0.717521 23.1181 0.25 21.9894 0.25 20.8125V5.1875C0.25 4.0106 0.717521 2.88191 1.54971 2.04971C2.38191 1.21752 3.5106 0.75 4.6875 0.75Z" fill="#4D4D4D" stroke="#FEFEFE" stroke-width="0.5"/>
</svg>
