<svg width="210" height="172" viewBox="0 0 210 172" fill="none" xmlns="http://www.w3.org/2000/svg">
<rect x="4" y="4" width="202" height="132" rx="4" fill="#1A1A1A" stroke="#DBDBDB" stroke-width="8"/>
<path d="M0 115.167H210" stroke="#DBDBDB" stroke-width="8"/>
<path d="M105 140V172" stroke="#DBDBDB" stroke-width="8"/>
<path d="M58.333 168H151.666" stroke="#DBDBDB" stroke-width="8" stroke-linecap="round"/>
<mask id="path-5-outside-1_141_1014" maskUnits="userSpaceOnUse" x="84" y="32" width="38" height="61" fill="black">
<rect fill="white" x="84" y="32" width="38" height="61"/>
<path d="M91.68 60.64C88.27 60.64 85.85 58 85.85 54.59C85.85 51.18 88.27 48.54 91.68 48.54C95.035 48.54 97.51 51.18 97.51 54.59C97.51 58 95.035 60.64 91.68 60.64ZM91.68 80.77C88.27 80.77 85.85 78.075 85.85 74.665C85.85 71.255 88.27 68.615 91.68 68.615C95.035 68.615 97.51 71.255 97.51 74.665C97.51 78.075 95.035 80.77 91.68 80.77ZM114.042 91.275C108.762 82.64 105.737 73.62 105.737 62.51C105.737 51.455 108.762 42.38 114.042 33.745L120.147 36.275C115.582 44.415 113.602 53.71 113.602 62.51C113.602 71.365 115.582 80.605 120.147 88.745L114.042 91.275Z"/>
</mask>
<path d="M91.68 60.64C88.27 60.64 85.85 58 85.85 54.59C85.85 51.18 88.27 48.54 91.68 48.54C95.035 48.54 97.51 51.18 97.51 54.59C97.51 58 95.035 60.64 91.68 60.64ZM91.68 80.77C88.27 80.77 85.85 78.075 85.85 74.665C85.85 71.255 88.27 68.615 91.68 68.615C95.035 68.615 97.51 71.255 97.51 74.665C97.51 78.075 95.035 80.77 91.68 80.77ZM114.042 91.275C108.762 82.64 105.737 73.62 105.737 62.51C105.737 51.455 108.762 42.38 114.042 33.745L120.147 36.275C115.582 44.415 113.602 53.71 113.602 62.51C113.602 71.365 115.582 80.605 120.147 88.745L114.042 91.275Z" fill="#DBDBDB"/>
<path d="M91.68 59.64C88.8706 59.64 86.85 57.4973 86.85 54.59H84.85C84.85 58.5027 87.6694 61.64 91.68 61.64V59.64ZM86.85 54.59C86.85 51.6827 88.8706 49.54 91.68 49.54V47.54C87.6694 47.54 84.85 50.6773 84.85 54.59H86.85ZM91.68 49.54C94.4405 49.54 96.51 51.6891 96.51 54.59H98.51C98.51 50.6709 95.6295 47.54 91.68 47.54V49.54ZM96.51 54.59C96.51 57.4909 94.4405 59.64 91.68 59.64V61.64C95.6295 61.64 98.51 58.5091 98.51 54.59H96.51ZM91.68 79.77C88.8821 79.77 86.85 77.5845 86.85 74.665H84.85C84.85 78.5655 87.6579 81.77 91.68 81.77V79.77ZM86.85 74.665C86.85 71.7577 88.8706 69.615 91.68 69.615V67.615C87.6694 67.615 84.85 70.7523 84.85 74.665H86.85ZM91.68 69.615C94.4405 69.615 96.51 71.7641 96.51 74.665H98.51C98.51 70.7459 95.6295 67.615 91.68 67.615V69.615ZM96.51 74.665C96.51 77.578 94.429 79.77 91.68 79.77V81.77C95.641 81.77 98.51 78.5719 98.51 74.665H96.51ZM114.042 91.275L113.189 91.7967L113.635 92.5262L114.425 92.1988L114.042 91.275ZM114.042 33.745L114.425 32.8212L113.635 32.4938L113.189 33.2233L114.042 33.745ZM120.147 36.275L121.019 36.7641L121.57 35.7822L120.53 35.3512L120.147 36.275ZM120.147 88.745L120.53 89.6688L121.57 89.2378L121.019 88.2559L120.147 88.745ZM114.895 90.7533C109.699 82.2548 106.737 73.4132 106.737 62.51H104.737C104.737 73.8268 107.826 83.0252 113.189 91.7967L114.895 90.7533ZM106.737 62.51C106.737 51.6613 109.699 42.7647 114.895 34.2667L113.189 33.2233C107.825 41.9953 104.737 51.2487 104.737 62.51H106.737ZM113.659 34.6688L119.764 37.1988L120.53 35.3512L114.425 32.8212L113.659 34.6688ZM119.275 35.7859C114.613 44.0985 112.602 53.5674 112.602 62.51H114.602C114.602 53.8526 116.551 44.7315 121.019 36.7641L119.275 35.7859ZM112.602 62.51C112.602 71.5081 114.613 80.9219 119.275 89.2341L121.019 88.2559C116.551 80.2881 114.602 71.2219 114.602 62.51H112.602ZM119.764 87.8212L113.659 90.3512L114.425 92.1988L120.53 89.6688L119.764 87.8212Z" fill="#4D4D4D" mask="url(#path-5-outside-1_141_1014)"/>
</svg>
