<svg width="210" height="172" viewBox="0 0 210 172" fill="none" xmlns="http://www.w3.org/2000/svg">
<rect x="4" y="4" width="202" height="132" rx="4" fill="#FEFEFE" stroke="#4D4D4D" stroke-width="8"/>
<path d="M0 115.167H210" stroke="#4D4D4D" stroke-width="8"/>
<path d="M105 140V172" stroke="#4D4D4D" stroke-width="8"/>
<path d="M58.3333 168H151.667" stroke="#4D4D4D" stroke-width="8" stroke-linecap="round"/>
<path d="M91.68 60.64C88.27 60.64 85.85 58 85.85 54.59C85.85 51.18 88.27 48.54 91.68 48.54C95.035 48.54 97.51 51.18 97.51 54.59C97.51 58 95.035 60.64 91.68 60.64ZM91.68 80.77C88.27 80.77 85.85 78.075 85.85 74.665C85.85 71.255 88.27 68.615 91.68 68.615C95.035 68.615 97.51 71.255 97.51 74.665C97.51 78.075 95.035 80.77 91.68 80.77ZM114.042 91.275C108.762 82.64 105.737 73.62 105.737 62.51C105.737 51.455 108.762 42.38 114.042 33.745L120.147 36.275C115.582 44.415 113.602 53.71 113.602 62.51C113.602 71.365 115.582 80.605 120.147 88.745L114.042 91.275Z" fill="#4D4D4D"/>
</svg>
