<svg width="28" height="29" viewBox="0 0 28 29" fill="none" xmlns="http://www.w3.org/2000/svg">
<path fill-rule="evenodd" clip-rule="evenodd" d="M0.356883 14.5C0.356883 14.0242 0.742625 13.6384 1.21846 13.6384L27.0658 13.6384C27.5417 13.6384 27.9274 14.0242 27.9274 14.5C27.9274 14.9758 27.5417 15.3616 27.0658 15.3616L1.21846 15.3616C0.742625 15.3616 0.356883 14.9758 0.356883 14.5Z" fill="#4D4D4D"/>
<path fill-rule="evenodd" clip-rule="evenodd" d="M14.1421 28.2853C13.6663 28.2853 13.2806 27.8995 13.2806 27.4237L13.2806 1.57632C13.2806 1.10048 13.6663 0.714743 14.1421 0.714743C14.618 0.714743 15.0037 1.10048 15.0037 1.57632L15.0037 27.4237C15.0037 27.8995 14.618 28.2853 14.1421 28.2853Z" fill="#4D4D4D"/>
</svg>
