<svg width="22" height="29" viewBox="0 0 22 29" fill="none" xmlns="http://www.w3.org/2000/svg">
<path d="M11.0526 3.17234C10.7465 3.70246 9.3811 3.48711 8.0028 2.69135C6.6245 1.89558 5.75527 0.820745 6.06134 0.290628C6.3674 -0.239488 7.73285 -0.024139 9.11115 0.771624C10.4895 1.56739 11.3587 2.64223 11.0526 3.17234Z" fill="#91C788"/>
<path d="M15.9387 0.328355C16.2447 0.858472 15.3755 1.93331 13.9972 2.72907C12.6189 3.52484 11.2535 3.74019 10.9474 3.21007C10.6413 2.67995 11.5105 1.60512 12.8888 0.809352C14.2672 0.0135882 15.6326 -0.201761 15.9387 0.328355Z" fill="#91C788"/>
<path d="M10.8273 3.0548H11.5366V7.48821H10.8273V3.0548Z" fill="#91C788"/>
<path d="M11 27.4882C16.5228 27.4882 21 23.0111 21 17.4882C21 11.9654 16.5228 7.48822 11 7.48822C5.47715 7.48822 1 11.9654 1 17.4882C1 23.0111 5.47715 27.4882 11 27.4882Z" stroke="#DBDBDB" stroke-width="2" stroke-linecap="round" stroke-linejoin="round"/>
<path d="M7 19.4882C7 19.4882 8.5 21.4882 11 21.4882C13.5 21.4882 15 19.4882 15 19.4882" stroke="#DBDBDB" stroke-width="2" stroke-linecap="round" stroke-linejoin="round"/>
<path d="M8 14.4882H8.01" stroke="#DBDBDB" stroke-width="2" stroke-linecap="round" stroke-linejoin="round"/>
<path d="M14 14.4882H14.01" stroke="#DBDBDB" stroke-width="2" stroke-linecap="round" stroke-linejoin="round"/>
</svg>
