<svg width="29" height="30" viewBox="0 0 29 30" fill="none" xmlns="http://www.w3.org/2000/svg">
<path d="M25.684 28.8523L17.9536 20.4462C17.109 21.1218 16.1378 21.6567 15.0398 22.0509C13.9419 22.445 12.7736 22.6421 11.5349 22.6421C8.46631 22.6421 5.86955 21.5796 3.74462 19.4547C1.61857 17.3286 0.555542 14.7313 0.555542 11.6627C0.555542 8.59412 1.61857 5.9968 3.74462 3.87074C5.86955 1.74581 8.46631 0.68335 11.5349 0.68335C14.6035 0.68335 17.2008 1.74581 19.3269 3.87074C21.4518 5.9968 22.5143 8.59412 22.5143 11.6627C22.5143 12.9014 22.3172 14.0697 21.9231 15.1677C21.5289 16.2656 20.994 17.2368 20.3184 18.0814L28.091 26.5297C28.4007 26.8394 28.5555 27.2194 28.5555 27.6699C28.5555 28.1203 28.3866 28.5144 28.0488 28.8523C27.7391 29.1619 27.345 29.3168 26.8664 29.3168C26.3878 29.3168 25.9937 29.1619 25.684 28.8523ZM11.5349 19.2638C13.6463 19.2638 15.4413 18.5251 16.9198 17.0477C18.3973 15.5691 19.136 13.7741 19.136 11.6627C19.136 9.55129 18.3973 7.75631 16.9198 6.27775C15.4413 4.80033 13.6463 4.06161 11.5349 4.06161C9.42348 4.06161 7.6285 4.80033 6.14995 6.27775C4.67252 7.75631 3.93381 9.55129 3.93381 11.6627C3.93381 13.7741 4.67252 15.5691 6.14995 17.0477C7.6285 18.5251 9.42348 19.2638 11.5349 19.2638Z" fill="#1A1A1A"/>
</svg>
