<svg width="14" height="14" viewBox="0 0 14 14" fill="none" xmlns="http://www.w3.org/2000/svg">
<path d="M8.617 9.56129L8.52222 9.45823L8.41288 9.5457C8.01384 9.86493 7.55374 10.1187 7.03126 10.3062C6.51168 10.4928 5.95768 10.5865 5.36824 10.5865C3.90672 10.5865 2.6755 10.0821 1.66533 9.07197C0.654595 8.06123 0.15 6.82973 0.15 5.36824C0.15 3.90675 0.654595 2.67524 1.66533 1.66451C2.6755 0.654336 3.90672 0.15 5.36824 0.15C6.82972 0.15 8.06122 0.654319 9.07194 1.66448C10.0821 2.67521 10.5865 3.90672 10.5865 5.36824C10.5865 5.95768 10.4928 6.51168 10.3062 7.03126C10.1187 7.55374 9.86493 8.01384 9.54569 8.41289L9.46527 8.51341L9.55244 8.60815L13.3528 12.7389L13.3527 12.7389L13.3571 12.7434C13.4795 12.8658 13.5403 13.013 13.5403 13.1948C13.5403 13.3726 13.4754 13.5279 13.3365 13.6668C13.2159 13.7873 13.0627 13.85 12.8644 13.85C12.6673 13.85 12.5147 13.7881 12.3945 13.6689L8.617 9.56129ZM8.10717 8.10726L8.10726 8.10718C8.85805 7.35581 9.23471 6.4399 9.23471 5.36824C9.23471 4.29657 8.85805 3.38067 8.10726 2.6293L8.10717 2.62922C7.35581 1.87842 6.4399 1.50177 5.36824 1.50177C4.29657 1.50177 3.38067 1.87842 2.6293 2.62922L2.62922 2.6293C1.87842 3.38067 1.50176 4.29657 1.50176 5.36824C1.50176 6.4399 1.87842 7.35581 2.62922 8.10718L2.6293 8.10726C3.38067 8.85805 4.29657 9.23471 5.36824 9.23471C6.4399 9.23471 7.35581 8.85805 8.10717 8.10726Z" fill="#91C788" stroke="#FEFEFE" stroke-width="0.3"/>
</svg>
