<svg width="29" height="29" viewBox="0 0 29 29" fill="none" xmlns="http://www.w3.org/2000/svg">
<path d="M18.064 19.8447L17.9692 19.7416L17.8599 19.8291C17.0292 20.4936 16.0728 21.0207 14.9892 21.4097C13.9085 21.7976 12.7574 21.9921 11.5349 21.9921C8.50515 21.9921 5.94683 20.9447 3.85069 18.8486C1.75341 16.7513 0.705542 14.1924 0.705542 11.1627C0.705542 8.13298 1.75341 5.57409 3.85069 3.47681C5.94683 1.38067 8.50515 0.33335 11.5349 0.33335C14.5646 0.33335 17.1235 1.38065 19.2208 3.47678C21.3169 5.57405 22.3643 8.13296 22.3643 11.1627C22.3643 12.3852 22.1698 13.5363 21.7819 14.617C21.3929 15.7006 20.8658 16.657 20.2013 17.4877L20.1208 17.5882L20.208 17.683L27.9806 26.1313L27.9805 26.1314L27.985 26.1358C28.2656 26.4164 28.4055 26.7579 28.4055 27.1699C28.4055 27.5779 28.2543 27.9346 27.9427 28.2462C27.6639 28.525 27.3093 28.6668 26.8664 28.6668C26.4247 28.6668 26.0707 28.5257 25.7922 28.2483L18.064 19.8447ZM17.0259 16.6538L17.026 16.6537C18.5318 15.1467 19.286 13.3134 19.286 11.1627C19.286 9.01198 18.5318 7.17873 17.026 5.67173L17.0259 5.67165C15.5189 4.1658 13.6856 3.41161 11.5349 3.41161C9.38417 3.41161 7.55092 4.1658 6.04392 5.67165L6.04384 5.67173C4.53799 7.17873 3.78381 9.01198 3.78381 11.1627C3.78381 13.3134 4.53799 15.1467 6.04384 16.6537L6.04392 16.6538C7.55092 18.1596 9.38417 18.9138 11.5349 18.9138C13.6856 18.9138 15.5189 18.1596 17.0259 16.6538Z" fill="#FEFEFE" stroke="#FEFEFE" stroke-width="0.3"/>
</svg>
