<svg width="29" height="30" viewBox="0 0 29 30" fill="none" xmlns="http://www.w3.org/2000/svg">
<path d="M18.064 20.3447L17.9692 20.2416L17.8599 20.3291C17.0292 20.9936 16.0728 21.5207 14.9892 21.9097C13.9085 22.2976 12.7574 22.4921 11.5349 22.4921C8.50515 22.4921 5.94683 21.4447 3.85069 19.3486C1.75341 17.2513 0.705542 14.6924 0.705542 11.6627C0.705542 8.63298 1.75341 6.07409 3.85069 3.97681C5.94683 1.88067 8.50515 0.83335 11.5349 0.83335C14.5646 0.83335 17.1235 1.88065 19.2208 3.97678C21.3169 6.07405 22.3643 8.63296 22.3643 11.6627C22.3643 12.8852 22.1698 14.0363 21.7819 15.117C21.3929 16.2006 20.8658 17.157 20.2013 17.9877L20.1208 18.0882L20.208 18.183L27.9806 26.6313L27.9805 26.6314L27.985 26.6358C28.2656 26.9164 28.4055 27.2579 28.4055 27.6699C28.4055 28.0779 28.2543 28.4346 27.9427 28.7462C27.6639 29.025 27.3093 29.1668 26.8664 29.1668C26.4247 29.1668 26.0707 29.0257 25.7922 28.7483L18.064 20.3447ZM17.0259 17.1538L17.026 17.1537C18.5318 15.6467 19.286 13.8134 19.286 11.6627C19.286 9.51198 18.5318 7.67873 17.026 6.17173L17.0259 6.17165C15.5189 4.6658 13.6856 3.91161 11.5349 3.91161C9.38417 3.91161 7.55092 4.6658 6.04392 6.17165L6.04384 6.17173C4.53799 7.67873 3.78381 9.51198 3.78381 11.6627C3.78381 13.8134 4.53799 15.6467 6.04384 17.1537L6.04392 17.1538C7.55092 18.6596 9.38417 19.4138 11.5349 19.4138C13.6856 19.4138 15.5189 18.6596 17.0259 17.1538Z" fill="#91C788" stroke="#FEFEFE" stroke-width="0.3"/>
</svg>
