<svg width="18" height="18" viewBox="0 0 18 18" fill="none" xmlns="http://www.w3.org/2000/svg">
<path d="M15.4414 9.8775C15.4774 9.5895 15.5044 9.297 15.5044 9C15.5044 8.703 15.4774 8.4105 15.4414 8.1225L17.3449 6.633C17.5159 6.498 17.5654 6.255 17.4529 6.057L15.6529 2.9385C15.5404 2.745 15.3064 2.664 15.1039 2.745L12.8629 3.6495C12.3994 3.294 11.8909 2.9925 11.3419 2.763L11.0044 0.378C10.9639 0.1665 10.7794 0 10.5544 0H6.95441C6.72941 0 6.54491 0.1665 6.50891 0.378L6.17141 2.763C5.62742 2.98989 5.11595 3.288 4.65041 3.6495L2.40941 2.745C2.30981 2.707 2.19995 2.70559 2.09941 2.74103C1.99887 2.77646 1.91417 2.84644 1.86041 2.9385L0.0604102 6.057C-0.0520898 6.2505 -0.0025897 6.4935 0.16841 6.633L2.06741 8.1225C2.03141 8.4105 2.00441 8.703 2.00441 9C2.00441 9.297 2.03141 9.5895 2.06741 9.8775L0.16841 11.367C-0.0025897 11.502 -0.0520898 11.745 0.0604102 11.943L1.86041 15.0615C1.97291 15.255 2.20691 15.336 2.40941 15.255L4.65041 14.3505C5.11391 14.706 5.62241 15.0075 6.17141 15.237L6.50891 17.622C6.54491 17.8335 6.72941 18 6.95441 18H10.5544C10.7794 18 10.9639 17.8335 10.9999 17.622L11.3374 15.237C11.8814 15.0101 12.3929 14.712 12.8584 14.3505L15.0994 15.255C15.199 15.293 15.3089 15.2944 15.4094 15.259C15.51 15.2235 15.5946 15.1536 15.6484 15.0615L17.4484 11.943C17.5609 11.7495 17.5114 11.5065 17.3404 11.367L15.4414 9.8775ZM8.75441 12.15C7.01291 12.15 5.60441 10.7415 5.60441 9C5.60441 7.2585 7.01291 5.85 8.75441 5.85C10.4959 5.85 11.9044 7.2585 11.9044 9C11.9044 10.7415 10.4959 12.15 8.75441 12.15Z" fill="#4D4D4D"/>
</svg>
