<svg width="42" height="31" viewBox="0 0 42 31" fill="none" xmlns="http://www.w3.org/2000/svg">
<path d="M21.1934 14.6278C20.0678 16.5773 15.0462 15.7854 9.97737 12.8589C4.90853 9.93237 1.71187 5.97954 2.83745 4.02998C3.96303 2.08043 8.9846 2.8724 14.0534 5.7989C19.1223 8.7254 22.3189 12.6782 21.1934 14.6278Z" fill="#91C788"/>
<path d="M39.1625 4.16852C40.2881 6.11808 37.0914 10.0709 32.0226 12.9974C26.9537 15.9239 21.9322 16.7159 20.8066 14.7663C19.681 12.8168 22.8777 8.86393 27.9465 5.93743C33.0154 3.01093 38.0369 2.21896 39.1625 4.16852Z" fill="#91C788"/>
<path d="M20.3647 14.1957H22.9734V30.5H20.3647V14.1957Z" fill="#91C788"/>
</svg>
