<svg width="35" height="35" viewBox="0 0 35 35" fill="none" xmlns="http://www.w3.org/2000/svg">
<path fill-rule="evenodd" clip-rule="evenodd" d="M11.7209 13.9186C11.7209 10.5471 14.4541 7.81396 17.8256 7.81396C21.1972 7.81396 23.9302 10.5471 23.9302 13.9186C23.9302 17.2902 21.1972 20.0233 17.8256 20.0233C14.4541 20.0233 11.7209 17.2902 11.7209 13.9186ZM17.8256 10.2558C15.8028 10.2558 14.1628 11.8957 14.1628 13.9186C14.1628 15.9415 15.8028 17.5814 17.8256 17.5814C19.8484 17.5814 21.4884 15.9415 21.4884 13.9186C21.4884 11.8957 19.8484 10.2558 17.8256 10.2558Z" fill="#FEFEFE"/>
<path fill-rule="evenodd" clip-rule="evenodd" d="M0 17.5C0 7.83502 7.83502 0 17.5 0C27.165 0 35 7.83502 35 17.5C35 27.165 27.165 35 17.5 35C7.83502 35 0 27.165 0 17.5ZM17.5 2.44186C9.18362 2.44186 2.44186 9.18362 2.44186 17.5C2.44186 21.644 4.11579 25.397 6.82435 28.1197C7.11802 26.5355 7.69502 25.0419 8.85316 23.8409C10.5855 22.0443 13.3556 21.1628 17.5 21.1628C21.6442 21.1628 24.4144 22.0443 26.1466 23.8409C27.3049 25.0419 27.8818 26.5357 28.1755 28.1198C30.8842 25.3971 32.5581 21.644 32.5581 17.5C32.5581 9.18362 25.8163 2.44186 17.5 2.44186ZM25.9549 29.9623C25.789 27.9894 25.3605 26.5435 24.389 25.5358C23.3317 24.4394 21.3726 23.6047 17.5 23.6047C13.6272 23.6047 11.6682 24.4394 10.6109 25.5358C9.63928 26.5435 9.21088 27.9893 9.04501 29.9621C11.4553 31.6006 14.3658 32.5581 17.5 32.5581C20.634 32.5581 23.5446 31.6006 25.9549 29.9623Z" fill="#FEFEFE"/>
</svg>
