<svg width="35" height="36" viewBox="0 0 35 36" fill="none" xmlns="http://www.w3.org/2000/svg">
<path d="M11.7709 14.4186C11.7709 11.0747 14.4817 8.36396 17.8256 8.36396C21.1695 8.36396 23.8802 11.0747 23.8802 14.4186C23.8802 17.7626 21.1695 20.4733 17.8256 20.4733C14.4817 20.4733 11.7709 17.7626 11.7709 14.4186ZM17.8256 10.7058C15.7751 10.7058 14.1128 12.3681 14.1128 14.4186C14.1128 16.4691 15.7751 18.1314 17.8256 18.1314C19.876 18.1314 21.5384 16.4691 21.5384 14.4186C21.5384 12.3681 19.876 10.7058 17.8256 10.7058Z" fill="#1A1A1A" stroke="#FEFEFE" stroke-width="0.1"/>
<path d="M6.7889 28.6549L6.85613 28.7225L6.87351 28.6288C7.1661 27.0505 7.74008 25.5672 8.88915 24.3756C10.6077 22.5934 13.3611 21.7128 17.5 21.7128C21.6386 21.7128 24.3922 22.5934 26.1106 24.3756C27.2598 25.5672 27.8337 27.0506 28.1263 28.6289L28.1437 28.7227L28.2109 28.6551C30.9286 25.9234 32.6081 22.1577 32.6081 18C32.6081 9.65601 25.8439 2.89186 17.5 2.89186C9.15601 2.89186 2.39186 9.65601 2.39186 18C2.39186 22.1577 4.0714 25.9233 6.7889 28.6549ZM25.983 30.5036L26.0071 30.4872L26.0047 30.4581C25.8385 28.4816 25.4086 27.0214 24.425 26.0011L24.3929 26.032L24.425 26.0011C23.3538 24.8904 21.3782 24.0547 17.5 24.0547C13.6216 24.0547 11.646 24.8904 10.5749 26.0011C9.59115 27.0214 9.16136 28.4815 8.99518 30.4579L8.99274 30.487L9.0169 30.5035C11.4352 32.1474 14.3555 33.1081 17.5 33.1081C20.6444 33.1081 23.5647 32.1474 25.983 30.5036ZM0.05 18C0.05 8.36263 7.86263 0.55 17.5 0.55C27.1374 0.55 34.95 8.36263 34.95 18C34.95 27.6374 27.1374 35.45 17.5 35.45C7.86263 35.45 0.05 27.6374 0.05 18Z" fill="#1A1A1A" stroke="#FEFEFE" stroke-width="0.1"/>
</svg>
