<svg width="23" height="29" viewBox="0 0 23 29" fill="none" xmlns="http://www.w3.org/2000/svg">
<path d="M11.5555 12.9444C12.7861 12.9444 13.9891 12.5795 15.0124 11.8958C16.0356 11.2121 16.8331 10.2403 17.3041 9.10337C17.775 7.9664 17.8982 6.71532 17.6581 5.50833C17.4181 4.30134 16.8254 3.19264 15.9552 2.32245C15.0851 1.45226 13.9764 0.859647 12.7694 0.619561C11.5624 0.379475 10.3113 0.502696 9.17433 0.973641C8.03737 1.44459 7.06559 2.2421 6.38189 3.26534C5.69818 4.28858 5.33325 5.49159 5.33325 6.72222C5.33325 8.37246 5.98881 9.95511 7.1557 11.122C8.32259 12.2889 9.90524 12.9444 11.5555 12.9444Z" fill="#FEFEFE"/>
<path d="M20.8888 28.5001C21.3014 28.5001 21.6971 28.3362 21.9888 28.0445C22.2805 27.7528 22.4444 27.3571 22.4444 26.9446C22.4444 24.0566 21.2972 21.287 19.2551 19.2449C17.2131 17.2029 14.4434 16.0557 11.5555 16.0557C8.6676 16.0557 5.89797 17.2029 3.85591 19.2449C1.81384 21.287 0.666626 24.0566 0.666626 26.9446C0.666626 27.3571 0.830515 27.7528 1.12224 28.0445C1.41396 28.3362 1.80962 28.5001 2.22218 28.5001H20.8888Z" fill="#FEFEFE"/>
</svg>
