<svg width="23" height="28" viewBox="0 0 23 28" fill="none" xmlns="http://www.w3.org/2000/svg">
<path d="M11.5555 12.4444C12.7861 12.4444 13.9891 12.0795 15.0124 11.3958C16.0356 10.7121 16.8331 9.74033 17.3041 8.60337C17.775 7.4664 17.8982 6.21532 17.6581 5.00833C17.4181 3.80134 16.8254 2.69264 15.9552 1.82245C15.0851 0.952256 13.9764 0.359647 12.7694 0.119561C11.5624 -0.120525 10.3113 0.00269597 9.17433 0.473641C8.03737 0.944586 7.06559 1.7421 6.38189 2.76534C5.69818 3.78858 5.33325 4.99159 5.33325 6.22222C5.33325 7.87246 5.98881 9.45511 7.1557 10.622C8.32259 11.7889 9.90524 12.4444 11.5555 12.4444Z" fill="#91C788"/>
<path d="M20.8888 28.0001C21.3014 28.0001 21.6971 27.8362 21.9888 27.5445C22.2805 27.2528 22.4444 26.8571 22.4444 26.4446C22.4444 23.5566 21.2972 20.787 19.2551 18.7449C17.2131 16.7029 14.4434 15.5557 11.5555 15.5557C8.6676 15.5557 5.89797 16.7029 3.85591 18.7449C1.81384 20.787 0.666626 23.5566 0.666626 26.4446C0.666626 26.8571 0.830515 27.2528 1.12224 27.5445C1.41396 27.8362 1.80962 28.0001 2.22218 28.0001H20.8888Z" fill="#91C788"/>
</svg>
