<svg width="64" height="45" viewBox="0 0 64 45" fill="none" xmlns="http://www.w3.org/2000/svg">
<path d="M62.603 7.026C62.2348 5.6686 61.5179 4.43116 60.5233 3.43665C59.5288 2.44214 58.2914 1.72518 56.934 1.357C51.964 3.57628e-07 31.96 0 31.96 0C31.96 0 11.955 0.0400003 6.984 1.397C5.6266 1.76518 4.38916 2.48214 3.39465 3.47665C2.40014 4.47116 1.68318 5.7086 1.315 7.066C0 12.037 0 22.43 0 22.43C0 22.43 0 32.823 1.356 37.834C1.72418 39.1914 2.44114 40.4288 3.43565 41.4233C4.43016 42.4179 5.6676 43.1348 7.025 43.503C11.995 44.86 32 44.86 32 44.86C32 44.86 52.005 44.86 56.976 43.504C58.3334 43.1358 59.5708 42.4189 60.5653 41.4243C61.5599 40.4298 62.2768 39.1924 62.645 37.835C64 32.864 64 22.43 64 22.43C64 22.43 63.96 12.037 62.603 7.026Z" fill="#FF0000"/>
<path d="M25.5918 32.0419L42.1868 22.4299L25.5908 12.8179L25.5918 32.0419Z" fill="white"/>
</svg>
